<?xml version="1.0" encoding="UTF-8" standalone="no"?>
<!-- Created with Inkscape (http://www.inkscape.org/) -->

<svg
   xmlns:dc="http://purl.org/dc/elements/1.1/"
   xmlns:cc="http://creativecommons.org/ns#"
   xmlns:rdf="http://www.w3.org/1999/02/22-rdf-syntax-ns#"
   xmlns:svg="http://www.w3.org/2000/svg"
   xmlns="http://www.w3.org/2000/svg"
   xmlns:sodipodi="http://sodipodi.sourceforge.net/DTD/sodipodi-0.dtd"
   xmlns:inkscape="http://www.inkscape.org/namespaces/inkscape"
   width="210mm"
   height="297mm"
   id="svg10230"
   version="1.1"
   inkscape:version="0.48.4 r9939"
   sodipodi:docname="quicksearch-2.svg">
  <sodipodi:namedview
     id="base"
     pagecolor="#ffffff"
     bordercolor="#666666"
     borderopacity="1.0"
     inkscape:pageopacity="0.0"
     inkscape:pageshadow="2"
     inkscape:zoom="1.979899"
     inkscape:cx="354.69281"
     inkscape:cy="739.31577"
     inkscape:document-units="px"
     inkscape:current-layer="layer1"
     showgrid="true"
     inkscape:window-width="1278"
     inkscape:window-height="779"
     inkscape:window-x="0"
     inkscape:window-y="19"
     inkscape:window-maximized="1"
     inkscape:snap-object-midpoints="true"
     inkscape:object-paths="false"
     inkscape:object-nodes="false"
     inkscape:snap-smooth-nodes="false"
     inkscape:snap-midpoints="false">
    <inkscape:grid
       type="xygrid"
       id="grid10238"
       empspacing="5"
       visible="true"
       enabled="true"
       snapvisiblegridlinesonly="true"
       units="mm"
       spacingx="1mm"
       spacingy="1mm" />
  </sodipodi:namedview>
  <defs
     id="defs10232">
    <marker
       style="overflow:visible;"
       id="Arrow2Mend"
       refX="0.0"
       refY="0.0"
       orient="auto"
       inkscape:stockid="Arrow2Mend">
      <path
         transform="scale(0.6) rotate(180) translate(0,0)"
         d="M 8.7185878,4.0337352 L -2.2072895,0.016013256 L 8.7185884,-4.0017078 C 6.9730900,-1.6296469 6.9831476,1.6157441 8.7185878,4.0337352 z "
         style="fill-rule:evenodd;stroke-width:0.62500000;stroke-linejoin:round;"
         id="path3912" />
    </marker>
  </defs>
  <metadata
     id="metadata10235">
    <rdf:RDF>
      <cc:Work
         rdf:about="">
        <dc:format>image/svg+xml</dc:format>
        <dc:type
           rdf:resource="http://purl.org/dc/dcmitype/StillImage" />
        <dc:title />
      </cc:Work>
    </rdf:RDF>
  </metadata>
  <g
     inkscape:label="Ebene 1"
     inkscape:groupmode="layer"
     id="layer1">
    <path
       id="path10276"
       d="m 273.69426,311.02525 -0.006,-0.0287 -0.006,-0.0255 -0.01,-0.0287 -0.006,-0.0255 -0.006,-0.0223 -0.006,-0.0255 -0.01,-0.0223 -0.006,-0.0223 -0.0159,-0.0415 -0.0191,-0.0383 -0.0159,-0.0383 -0.0191,-0.0319 -0.0191,-0.0319 -0.0191,-0.0287 -0.0191,-0.0255 -0.0223,-0.0255 -0.0223,-0.0191 -0.0223,-0.0223 -0.0223,-0.0159 -0.0255,-0.016 -0.0255,-0.0127 -0.0287,-0.0128 -0.0287,-0.0127 -0.0287,-0.01 -0.0287,-0.006 -0.0319,-0.006 -0.0351,-0.006 -0.0319,-0.003 -0.0351,-0.003 -0.0383,-0.003 -0.0383,-0.003 -0.0383,0 -0.0414,-0.003 -0.0415,0 -0.0446,0 -0.0446,0 c -0.45921,0 -0.71433,0 -0.85783,0.60272 l -1.92296,8.32004 c -0.22004,0 -0.58996,0 -0.68244,0.0351 -0.17539,0.0957 -0.27106,0.25511 -0.27106,0.45921 0,0.47834 0.41457,0.47834 0.68244,0.47834 h 1.62 c 0.2902,0 0.66968,0 0.66968,-0.47834 0,-0.49429 -0.3157,-0.49429 -0.88972,-0.49429 l 0.36673,-1.6487 0.23918,-0.96945 1.04598,-5.01945 h 0.0191 l 1.03004,5.01945 h -2.09515 l -0.23918,0.96945 h 2.57351 l 0.36354,1.6487 c -0.57083,0 -0.88972,0 -0.88972,0.49429 0,0.47834 0.38267,0.47834 0.66649,0.47834 h 1.62319 c 0.27106,0 0.68563,0 0.68563,-0.47834 0,-0.2041 -0.0797,-0.36354 -0.27106,-0.44327 -0.0989,-0.051 -0.44646,-0.051 -0.68563,-0.051 z"
       inkscape:connector-curvature="0"
       style="font-style:normal;font-variant:normal;font-weight:normal;font-stretch:normal;letter-spacing:normal;word-spacing:normal;text-anchor:start;fill:#000000;stroke:#000000;stroke-width:0;stroke-linecap:butt;stroke-linejoin:miter;stroke-miterlimit:10.43299961;stroke-opacity:1;stroke-dasharray:none;stroke-dashoffset:0" />
    <path
       id="path10278"
       d="m 288.60733,315.12468 0.0957,-0.0319 0.0925,-0.0383 0.0893,-0.0383 0.0893,-0.0446 0.0861,-0.0446 0.0829,-0.0446 0.0829,-0.051 0.0765,-0.051 0.0797,-0.0542 0.0733,-0.0574 0.0702,-0.0606 0.0701,-0.0606 0.067,-0.0638 0.0638,-0.0638 0.0606,-0.067 0.0574,-0.0702 0.0574,-0.0702 0.051,-0.0733 0.0478,-0.0734 0.0446,-0.0765 0.0446,-0.0797 0.0383,-0.0765 0.0351,-0.0829 0.0319,-0.0829 0.0287,-0.0829 0.0255,-0.0861 0.0223,-0.0861 0.0159,-0.0861 0.0159,-0.0893 0.01,-0.0893 0.006,-0.0925 0,-0.0925 c 0,-1.16079 -0.96945,-2.46189 -2.73295,-2.46189 l -0.0606,0.96626 c 1.34893,0 1.69972,0.98858 1.69972,1.51157 0,0.65374 -0.51023,1.69973 -2.04732,1.69973 h -1.64232 v 0.96944 h 2.19401 c 1.34894,0 1.82729,1.16079 1.82729,1.87512 0,0.77811 -0.61548,1.71248 -2.00268,1.71248 h 0 -2.01862 v -3.5876 -0.96944 -3.2113 h 1.98992 l 0.0606,-0.96626 h -3.5876 c -0.22642,0 -0.6378,0 -0.6378,0.47515 0,0.49111 0.39863,0.49111 0.65056,0.49111 h 0.43051 v 7.76834 h -0.43051 c -0.25193,0 -0.65056,0 -0.65056,0.49429 0,0.47835 0.41138,0.47835 0.6378,0.47835 h 3.9065 c 1.79858,0 2.74889,-1.41591 2.74889,-2.65004 0,-1.1002 -0.76216,-2.13342 -2.04732,-2.43319 z"
       inkscape:connector-curvature="0"
       style="font-style:normal;font-variant:normal;font-weight:normal;font-stretch:normal;letter-spacing:normal;word-spacing:normal;text-anchor:start;fill:#000000;stroke:#000000;stroke-width:0;stroke-linecap:butt;stroke-linejoin:miter;stroke-miterlimit:10.43299961;stroke-opacity:1;stroke-dasharray:none;stroke-dashoffset:0" />
    <path
       id="path10280"
       d="m 304.70565,310.97209 0,-0.0255 0,-0.0255 0,-0.0255 0,-0.0255 -0.003,-0.0542 0,-0.0255 -0.003,-0.0287 -0.003,-0.0255 -0.003,-0.0287 -0.006,-0.0255 -0.006,-0.0287 -0.006,-0.0255 -0.006,-0.0255 -0.01,-0.0255 -0.01,-0.0255 -0.0128,-0.0223 -0.0128,-0.0223 -0.0159,-0.0223 -0.016,-0.0223 -0.0191,-0.0191 -0.0191,-0.0191 -0.01,-0.01 -0.0128,-0.01 -0.0127,-0.006 -0.01,-0.01 -0.0128,-0.006 -0.0159,-0.006 -0.0128,-0.01 -0.0127,-0.003 -0.0159,-0.006 -0.0159,-0.006 -0.016,-0.006 -0.0159,-0.003 -0.0191,-0.003 -0.0159,-0.003 -0.0191,-0.003 -0.0191,-0.003 -0.0191,-0.003 -0.0223,0 -0.0191,0 -0.0223,0 c -0.2902,0 -0.36992,0.15945 -0.44965,0.26787 -0.0287,0.0638 -0.0287,0.0957 -0.23279,0.49429 -0.52937,-0.44964 -1.25646,-0.76216 -2.06965,-0.76216 -2.04732,0 -3.82677,2.12704 -3.82677,5.01626 0,2.91153 1.77945,5.03858 3.84272,5.03858 1.84323,0 3.20811,-1.41591 3.20811,-2.84457 0,-0.52299 -0.37949,-0.52299 -0.5517,-0.52299 -0.14669,0 -0.51023,0 -0.54531,0.4624 -0.10843,1.55303 -1.39358,1.9389 -2.04732,1.9389 -1.44461,0 -2.80949,-1.68378 -2.80949,-4.07232 0,-2.36622 1.38083,-4.05 2.79354,-4.05 0.95351,0 1.8241,0.73027 2.05051,2.01862 0.0478,0.26787 0.0797,0.52299 0.55807,0.52299 0.5517,0 0.5517,-0.33484 0.5517,-0.64736 z"
       inkscape:connector-curvature="0"
       style="font-style:normal;font-variant:normal;font-weight:normal;font-stretch:normal;letter-spacing:normal;word-spacing:normal;text-anchor:start;fill:#000000;stroke:#000000;stroke-width:0;stroke-linecap:butt;stroke-linejoin:miter;stroke-miterlimit:10.43299961;stroke-opacity:1;stroke-dasharray:none;stroke-dashoffset:0" />
    <path
       id="path10282"
       d="m 312.30267,310.50067 -0.0223,0 -0.0255,0 -0.0255,0 -0.0255,0.003 -0.0542,0 -0.0287,0.003 -0.0255,0.003 -0.0287,0.003 -0.0255,0.003 -0.0287,0.006 -0.0255,0.003 -0.0255,0.01 -0.0255,0.006 -0.0255,0.01 -0.0255,0.0128 -0.0255,0.01 -0.0223,0.0159 -0.0223,0.0159 -0.0223,0.016 -0.0191,0.0191 -0.0191,0.0223 -0.01,0.01 -0.006,0.0128 -0.01,0.0128 -0.006,0.0128 -0.01,0.0127 -0.006,0.0128 -0.006,0.0159 -0.006,0.0127 -0.006,0.016 -0.003,0.0159 -0.006,0.0159 -0.003,0.0191 -0.006,0.0191 -0.003,0.0159 -0.003,0.0223 0,0.0191 -0.003,0.0191 0,0.0223 -0.003,0.0223 0,0.0223 c 0,0.47197 0.40818,0.47197 0.64736,0.47197 h 0.35079 v 7.76834 h -0.35079 c -0.25193,0 -0.64736,0 -0.64736,0.49429 0,0.47835 0.40818,0.47835 0.64736,0.47835 h 3.27508 c 2.0824,0 3.47598,-2.22272 3.47598,-4.78346 0,-2.54162 -1.36488,-4.92378 -3.47598,-4.92378 l -0.29977,0.96626 c 1.7954,0 2.68193,2.11429 2.68193,3.95752 0,1.85917 -0.91842,3.81082 -2.68193,3.81082 h -1.53071 v -7.76834 h 1.53071 l 0.29977,-0.96626 z"
       inkscape:connector-curvature="0"
       style="font-style:normal;font-variant:normal;font-weight:normal;font-stretch:normal;letter-spacing:normal;word-spacing:normal;text-anchor:start;fill:#000000;stroke:#000000;stroke-width:0;stroke-linecap:butt;stroke-linejoin:miter;stroke-miterlimit:10.43299961;stroke-opacity:1;stroke-dasharray:none;stroke-dashoffset:0" />
    <path
       id="path10316"
       d="m 253.69806,252.63225 0.0644,0.0644 0.0678,0.061 0.0644,0.0576 0.0644,0.0542 0.0678,0.0542 0.0644,0.0475 0.0644,0.0475 0.0644,0.0441 0.0678,0.0407 0.0644,0.0373 0.0644,0.0373 0.0644,0.0339 0.0644,0.0305 0.0644,0.0305 0.0644,0.0271 0.061,0.0237 0.0644,0.0237 0.061,0.0203 0.061,0.0203 0.061,0.017 0.061,0.0136 0.061,0.0136 0.0576,0.0102 0.0576,0.0102 0.061,0.0102 0.0542,0.007 0.11187,0.0102 0.10847,0.007 0.1017,0.003 -0.0475,-1.02713 c -1.31865,0 -1.91188,-1.48814 -1.91188,-2.29832 v -1.2373 c 0,-0.99322 0.97967,-1.88815 2.04409,-1.88815 1.25085,0 2.23052,1.23391 2.23052,2.70172 0,1.62035 -1.17967,2.72205 -2.36273,2.72205 l 0.0475,1.02713 c 1.84408,0 3.48138,-1.60679 3.48138,-3.74918 0,-2.07798 -1.50509,-3.72884 -3.29494,-3.72884 -0.81017,0 -1.5695,0.30169 -2.14578,0.82373 0,-0.49153 -0.0305,-0.72543 -0.67119,-0.72543 h -1.23391 c -0.27119,0 -0.69492,0 -0.69492,0.52543 0,0.5017 0.44068,0.5017 0.67797,0.5017 h 0.75594 v 8.96956 h -0.73899 c -0.27119,0 -0.69492,0 -0.69492,0.52204 0,0.50848 0.44068,0.50848 0.67797,0.50848 h 2.68477 c 0.2339,0 0.67458,0 0.67458,-0.50848 0,-0.52204 -0.42034,-0.52204 -0.69153,-0.52204 h -0.74577 z"
       inkscape:connector-curvature="0"
       style="font-style:normal;font-variant:normal;font-weight:normal;font-stretch:normal;letter-spacing:normal;word-spacing:normal;text-anchor:start;fill:#000000;stroke:#000000;stroke-width:0;stroke-linecap:butt;stroke-linejoin:miter;stroke-miterlimit:10.43299961;stroke-opacity:1;stroke-dasharray:none;stroke-dashoffset:0" />
    <path
       id="path10318"
       d="m 255.66408,300.54061 -0.0746,-0.0136 -0.0712,-0.0136 -0.13898,-0.0237 -0.13898,-0.0203 -0.13899,-0.0237 -0.0712,-0.0136 -0.0678,-0.0102 -0.0712,-0.0136 -0.0746,-0.0136 -0.0746,-0.0136 -0.0746,-0.0136 -0.0746,-0.0136 -0.0814,-0.0169 c -0.48475,-0.0678 -1.63391,-0.2678 -1.63391,-0.93221 0,-0.4373 0.53898,-0.95594 2.14238,-0.95594 1.4068,0 1.63731,0.50169 1.69154,0.94238 0.0169,0.28474 0.0475,0.57627 0.57289,0.57627 0.59322,0 0.59322,-0.35593 0.59322,-0.69492 v -1.16272 c 0,-0.27119 0,-0.69492 -0.50847,-0.69492 -0.4034,0 -0.47119,0.23729 -0.50509,0.35593 -0.74577,-0.35593 -1.48815,-0.35593 -1.81019,-0.35593 -2.81697,0 -3.20341,1.38306 -3.20341,1.98985 0,1.55933 1.7695,1.84408 3.32545,2.07798 0.82712,0.13898 2.17629,0.35593 2.17629,1.25085 0,0.62374 -0.62374,1.18645 -2.16273,1.18645 -0.79323,0 -1.739,-0.18644 -2.15934,-1.50509 -0.0847,-0.30848 -0.15254,-0.49153 -0.59323,-0.49153 -0.58644,0 -0.58644,0.35254 -0.58644,0.69153 v 1.6373 c 0,0.27119 0,0.69492 0.5017,0.69492 0.15254,0 0.42373,-0.0169 0.62373,-0.64068 0.82713,0.60678 1.72205,0.64068 2.20002,0.64068 2.66782,0 3.21019,-1.4034 3.21019,-2.21358 0,-1.75594 -2.18307,-2.10849 -2.72205,-2.19323 z"
       inkscape:connector-curvature="0"
       style="font-style:normal;font-variant:normal;font-weight:normal;font-stretch:normal;letter-spacing:normal;word-spacing:normal;text-anchor:start;fill:#000000;stroke:#000000;stroke-width:0;stroke-linecap:butt;stroke-linejoin:miter;stroke-miterlimit:10.43299961;stroke-opacity:1;stroke-dasharray:none;stroke-dashoffset:0" />
    <path
       id="path10322"
       d="m 328.46297,233.44663 0,-0.0284 -0.002,-0.0265 0,-0.0265 -0.002,-0.0244 -0.002,-0.0244 -0.002,-0.0224 -0.004,-0.0224 -0.004,-0.0203 -0.004,-0.0203 -0.004,-0.0183 -0.006,-0.0163 -0.008,-0.0163 -0.006,-0.0163 -0.0102,-0.0142 -0.008,-0.0142 -0.0102,-0.0122 -0.0122,-0.0101 -0.0122,-0.0122 -0.0142,-0.008 -0.0142,-0.0102 -0.0163,-0.008 -0.0163,-0.008 -0.0183,-0.006 -0.0203,-0.006 -0.0203,-0.004 -0.0224,-0.004 -0.0244,-0.004 -0.0244,-0.002 -0.0265,-0.002 -0.0285,-0.002 -0.0284,-0.002 -0.0163,0 -0.0163,0 h -1.44001 c -0.15254,0 -0.41492,0 -0.41492,0.30306 0,0.31322 0.26238,0.31322 0.41492,0.31322 h 1.1451 v 3.1302 h -1.22645 c -0.16272,0 -0.41289,0 -0.41289,0.31525 0,0.30509 0.26238,0.30509 0.41289,0.30509 h 2.98985 c 0.15254,0 0.41695,0 0.41695,-0.30509 0,-0.31525 -0.26441,-0.31525 -0.41695,-0.31525 h -1.06374 z"
       inkscape:connector-curvature="0"
       style="font-style:normal;font-variant:normal;font-weight:normal;font-stretch:normal;letter-spacing:normal;word-spacing:normal;text-anchor:start;fill:#000000;stroke:#000000;stroke-width:0;stroke-linecap:butt;stroke-linejoin:miter;stroke-miterlimit:10.43299961;stroke-opacity:1;stroke-dasharray:none;stroke-dashoffset:0" />
    <path
       id="path10324"
       d="m 328.54118,231.67312 -0.002,-0.0265 -0.002,-0.0265 -0.002,-0.0244 -0.004,-0.0265 -0.006,-0.0244 -0.006,-0.0224 -0.008,-0.0244 -0.0102,-0.0224 -0.0102,-0.0224 -0.0101,-0.0224 -0.0122,-0.0224 -0.0122,-0.0203 -0.0142,-0.0183 -0.0163,-0.0203 -0.0142,-0.0183 -0.0163,-0.0163 -0.0183,-0.0163 -0.0183,-0.0163 -0.0183,-0.0163 -0.0203,-0.0122 -0.0203,-0.0142 -0.0224,-0.0122 -0.0203,-0.0102 -0.0224,-0.0101 -0.0244,-0.0102 -0.0224,-0.006 -0.0244,-0.008 -0.0244,-0.004 -0.0265,-0.006 -0.0244,-0.002 -0.0265,-0.002 -0.0265,0 c -0.28271,0 -0.50847,0.2217 -0.50847,0.50442 0,0.28271 0.22576,0.50644 0.50847,0.50644 0.28272,0 0.50645,-0.22373 0.50645,-0.50644 z"
       inkscape:connector-curvature="0"
       style="font-style:normal;font-variant:normal;font-weight:normal;font-stretch:normal;letter-spacing:normal;word-spacing:normal;text-anchor:start;fill:#000000;stroke:#000000;stroke-width:0;stroke-linecap:butt;stroke-linejoin:miter;stroke-miterlimit:10.43299961;stroke-opacity:1;stroke-dasharray:none;stroke-dashoffset:0" />
    <path
       id="path10326"
       d="m 274.96113,234.1981 -0.002,-0.17492 -0.0102,-0.17288 -0.0142,-0.16678 -0.0203,-0.16475 -0.0244,-0.16068 -0.0305,-0.15661 -0.0366,-0.15255 -0.0407,-0.14847 -0.0448,-0.14238 -0.0488,-0.14034 -0.0549,-0.13423 -0.0569,-0.13017 -0.0631,-0.12407 -0.0651,-0.12 -0.0712,-0.1139 -0.0712,-0.10983 -0.0773,-0.10373 -0.0793,-0.0976 -0.0814,-0.0915 -0.0854,-0.0854 -0.0875,-0.0814 -0.0895,-0.0732 -0.0915,-0.0671 -0.0956,-0.061 -0.0956,-0.0549 -0.0976,-0.0468 -0.0997,-0.0407 -0.0997,-0.0346 -0.10169,-0.0265 -0.10373,-0.0183 -0.10373,-0.0122 -0.10373,-0.002 v 0.61628 c 0.74035,0 1.44815,0.99459 1.44815,2.48137 0,1.50103 -0.65695,2.69901 -1.44815,2.69901 h 0 c -0.78916,0 -1.45018,-1.19798 -1.45018,-2.69901 0,-1.47662 0.69967,-2.48137 1.45018,-2.48137 v -0.61628 c -1.13492,0 -2.14781,1.35662 -2.14781,3.19935 0,1.88544 1.03526,3.21359 2.14781,3.21359 1.13696,0 2.14781,-1.35663 2.14781,-3.20342 z"
       inkscape:connector-curvature="0"
       style="font-style:normal;font-variant:normal;font-weight:normal;font-stretch:normal;letter-spacing:normal;word-spacing:normal;text-anchor:start;fill:#000000;stroke:#000000;stroke-width:0;stroke-linecap:butt;stroke-linejoin:miter;stroke-miterlimit:10.43299961;stroke-opacity:1;stroke-dasharray:none;stroke-dashoffset:0" />
    <path
       id="path10328"
       d="m 287.3671,231.45654 0,-0.0163 0,-0.0163 0,-0.0163 0,-0.0163 -0.002,-0.0346 -0.002,-0.0163 -0.002,-0.0183 -0.002,-0.0163 -0.002,-0.0183 -0.002,-0.0163 -0.004,-0.0183 -0.004,-0.0163 -0.006,-0.0163 -0.006,-0.0163 -0.006,-0.0163 -0.008,-0.0142 -0.008,-0.0142 -0.0102,-0.0142 -0.0101,-0.0142 -0.0122,-0.0122 -0.0122,-0.0122 -0.006,-0.006 -0.008,-0.006 -0.008,-0.004 -0.006,-0.006 -0.0102,-0.004 -0.008,-0.004 -0.008,-0.006 -0.0102,-0.002 -0.008,-0.004 -0.0102,-0.004 -0.0102,-0.004 -0.0122,-0.002 -0.0102,-0.002 -0.0122,-0.002 -0.0122,-0.002 -0.0122,-0.002 -0.0122,-0.002 -0.0142,0 -0.0122,0 -0.0142,0 c -0.19322,0 -0.25424,0.12 -0.30509,0.24 -0.3844,0.86238 -0.91323,0.97425 -1.10238,0.99459 -0.16271,0.0102 -0.37627,0.0305 -0.37627,0.31526 0,0.2522 0.18102,0.30305 0.33356,0.30305 0.19526,0 0.60814,-0.061 1.0556,-0.44543 v 4.27326 h -0.92543 c -0.16068,0 -0.40271,0 -0.40271,0.31525 0,0.30509 0.25423,0.30509 0.40271,0.30509 h 2.54646 c 0.15254,0 0.40271,0 0.40271,-0.30509 0,-0.31525 -0.24,-0.31525 -0.40271,-0.31525 h -0.92136 z"
       inkscape:connector-curvature="0"
       style="font-style:normal;font-variant:normal;font-weight:normal;font-stretch:normal;letter-spacing:normal;word-spacing:normal;text-anchor:start;fill:#000000;stroke:#000000;stroke-width:0;stroke-linecap:butt;stroke-linejoin:miter;stroke-miterlimit:10.43299961;stroke-opacity:1;stroke-dasharray:none;stroke-dashoffset:0" />
    <path
       id="path10330"
       d="m 299.18287,236.76005 -0.0102,0.008 -0.008,0.006 -0.008,0.008 -0.008,0.008 -0.0142,0.0142 -0.0142,0.0122 -0.008,0.008 -0.006,0.006 -0.006,0.008 -0.006,0.006 -0.006,0.008 -0.006,0.006 -0.004,0.008 -0.006,0.008 -0.004,0.006 -0.004,0.008 -0.006,0.008 -0.004,0.008 -0.002,0.0102 -0.004,0.008 -0.004,0.008 -0.002,0.0102 -0.002,0.0102 -0.002,0.0101 -0.002,0.0102 -0.002,0.0122 -0.002,0.0102 0,0.0122 0,0.0122 0,0.0122 c 0,0.31526 0.25424,0.31526 0.41492,0.31526 h 3.43325 c 0.33559,0 0.40678,-0.0915 0.40678,-0.41696 v -0.26237 c 0,-0.19118 0,-0.41288 -0.34373,-0.41288 -0.35594,0 -0.35594,0.18915 -0.35594,0.47187 h -2.41222 c 0.59797,-0.51459 1.57018,-1.27323 2.00544,-1.68002 0.63865,-0.56542 1.10645,-1.21425 1.10645,-2.02781 0,-1.21424 -1.02306,-1.9729 -2.25968,-1.9729 -1.1939,0 -1.99527,0.82781 -1.99527,1.69019 0,0.37423 0.28271,0.4861 0.45356,0.4861 0.21357,0 0.4495,-0.17085 0.4495,-0.45356 0,-0.12203 -0.0508,-0.25424 -0.14441,-0.32543 0.15255,-0.4678 0.62848,-0.78102 1.18578,-0.78102 0.82983,0 1.61085,0.46576 1.61085,1.35662 0,0.71187 -0.49627,1.29967 -1.16543,1.85493 z"
       inkscape:connector-curvature="0"
       style="font-style:normal;font-variant:normal;font-weight:normal;font-stretch:normal;letter-spacing:normal;word-spacing:normal;text-anchor:start;fill:#000000;stroke:#000000;stroke-width:0;stroke-linecap:butt;stroke-linejoin:miter;stroke-miterlimit:10.43299961;stroke-opacity:1;stroke-dasharray:none;stroke-dashoffset:0" />
    <path
       id="path10332"
       d="m 316.39604,233.90509 0.0529,-0.0346 0.0508,-0.0366 0.0488,-0.0366 0.0468,-0.0386 0.0468,-0.0386 0.0448,-0.0407 0.0407,-0.0427 0.0427,-0.0427 0.0386,-0.0427 0.0366,-0.0427 0.0366,-0.0468 0.0325,-0.0448 0.0325,-0.0468 0.0325,-0.0468 0.0285,-0.0468 0.0265,-0.0488 0.0265,-0.0488 0.0244,-0.0488 0.0224,-0.0509 0.0203,-0.0488 0.0183,-0.0509 0.0183,-0.0508 0.0163,-0.0508 0.0142,-0.0509 0.0122,-0.0508 0.0102,-0.0529 0.0102,-0.0508 0.006,-0.0529 0.006,-0.0508 0.004,-0.0508 0.002,-0.0529 0.002,-0.0508 c 0,-0.75052 -0.74034,-1.42578 -1.90374,-1.42578 -1.21831,0 -1.92612,0.48611 -1.92612,1.18374 0,0.3356 0.25017,0.47797 0.45357,0.47797 0.21356,0 0.44949,-0.17492 0.44949,-0.45763 0,-0.14034 -0.0631,-0.24204 -0.0936,-0.27458 0.31526,-0.31322 1.03323,-0.31322 1.12679,-0.31322 0.68949,0 1.19391,0.36407 1.19391,0.81967 0,0.30509 -0.15255,0.66102 -0.42509,0.88272 -0.32543,0.26441 -0.57967,0.28271 -0.94171,0.30508 -0.57762,0.0386 -0.73017,0.0386 -0.73017,0.33356 0,0.31526 0.24407,0.31526 0.40679,0.31526 h 0.46372 c 1.00476,0 1.52138,0.67729 1.52138,1.2651 0,0.62034 -0.56747,1.25899 -1.48883,1.25899 -0.40678,0 -1.18577,-0.11593 -1.45018,-0.5878 0.0509,-0.0508 0.12,-0.11187 0.12,-0.31526 0,-0.24407 -0.19322,-0.44746 -0.44339,-0.44746 -0.23594,0 -0.45763,0.15254 -0.45763,0.47593 0,0.90306 0.98441,1.49087 2.2312,1.49087 1.32408,0 2.18849,-0.93154 2.18849,-1.87527 0,-0.71798 -0.47594,-1.31595 -1.14713,-1.62104 z"
       inkscape:connector-curvature="0"
       style="font-style:normal;font-variant:normal;font-weight:normal;font-stretch:normal;letter-spacing:normal;word-spacing:normal;text-anchor:start;fill:#000000;stroke:#000000;stroke-width:0;stroke-linecap:butt;stroke-linejoin:miter;stroke-miterlimit:10.43299961;stroke-opacity:1;stroke-dasharray:none;stroke-dashoffset:0" />
    <path
       style="font-style:normal;font-variant:normal;font-weight:normal;font-stretch:normal;letter-spacing:normal;word-spacing:normal;text-anchor:start;fill:none;stroke:#000000;stroke-width:1px;stroke-linecap:butt;stroke-linejoin:miter;stroke-miterlimit:10.43299961;stroke-opacity:1;stroke-dasharray:none;stroke-dashoffset:0"
       d="m 265.74803,308.26769 0,-14.17323 14.17323,0 0,14.17323 z"
       id="path10379"
       inkscape:connector-curvature="0" />
    <path
       style="font-style:normal;font-variant:normal;font-weight:normal;font-stretch:normal;letter-spacing:normal;word-spacing:normal;text-anchor:start;fill:none;stroke:#000000;stroke-width:1px;stroke-linecap:butt;stroke-linejoin:miter;stroke-miterlimit:10.43299961;stroke-opacity:1;stroke-dasharray:none;stroke-dashoffset:0"
       d="m 279.92126,308.26769 0,-14.17323 14.17323,0 0,14.17323 z"
       id="path10379-2"
       inkscape:connector-curvature="0" />
    <path
       style="font-style:normal;font-variant:normal;font-weight:normal;font-stretch:normal;letter-spacing:normal;word-spacing:normal;text-anchor:start;fill:none;stroke:#000000;stroke-width:1px;stroke-linecap:butt;stroke-linejoin:miter;stroke-miterlimit:10.43299961;stroke-opacity:1;stroke-dasharray:none;stroke-dashoffset:0"
       d="m 294.09449,308.26769 0,-14.17322 14.17322,0 0,14.17322 z"
       id="path10379-8"
       inkscape:connector-curvature="0" />
    <path
       style="font-style:normal;font-variant:normal;font-weight:normal;font-stretch:normal;letter-spacing:normal;word-spacing:normal;text-anchor:start;fill:none;stroke:#000000;stroke-width:1px;stroke-linecap:butt;stroke-linejoin:miter;stroke-miterlimit:10.43299961;stroke-opacity:1;stroke-dasharray:none;stroke-dashoffset:0"
       d="m 308.26771,308.26769 0,-14.17323 14.17323,0 0,14.17323 z"
       id="path10379-2-2"
       inkscape:connector-curvature="0" />
    <path
       style="font-style:normal;font-variant:normal;font-weight:normal;font-stretch:normal;letter-spacing:normal;word-spacing:normal;text-anchor:start;fill:none;stroke:#000000;stroke-width:1px;stroke-linecap:butt;stroke-linejoin:miter;stroke-miterlimit:10.43299961;stroke-opacity:1;stroke-dasharray:none;stroke-dashoffset:0"
       d="m 265.74803,255.11808 0,-14.17323 14.17323,0 0,14.17323 z"
       id="path10379-7"
       inkscape:connector-curvature="0" />
    <path
       style="font-style:normal;font-variant:normal;font-weight:normal;font-stretch:normal;letter-spacing:normal;word-spacing:normal;text-anchor:start;fill:none;stroke:#000000;stroke-width:1px;stroke-linecap:butt;stroke-linejoin:miter;stroke-miterlimit:10.43299961;stroke-opacity:1;stroke-dasharray:none;stroke-dashoffset:0"
       d="m 279.92126,255.11808 0,-14.17323 14.17323,0 0,14.17323 z"
       id="path10379-2-5"
       inkscape:connector-curvature="0" />
    <path
       style="font-style:normal;font-variant:normal;font-weight:normal;font-stretch:normal;letter-spacing:normal;word-spacing:normal;text-anchor:start;fill:none;stroke:#000000;stroke-width:1px;stroke-linecap:butt;stroke-linejoin:miter;stroke-miterlimit:10.43299961;stroke-opacity:1;stroke-dasharray:none;stroke-dashoffset:0"
       d="m 294.09449,255.11808 0,-14.17322 14.17322,0 0,14.17322 z"
       id="path10379-8-7"
       inkscape:connector-curvature="0" />
    <path
       style="font-style:normal;font-variant:normal;font-weight:normal;font-stretch:normal;letter-spacing:normal;word-spacing:normal;text-anchor:start;fill:none;stroke:#000000;stroke-width:1px;stroke-linecap:butt;stroke-linejoin:miter;stroke-miterlimit:10.43299961;stroke-opacity:1;stroke-dasharray:none;stroke-dashoffset:0"
       d="m 308.26771,255.11808 0,-14.17323 14.17323,0 0,14.17323 z"
       id="path10379-2-2-5"
       inkscape:connector-curvature="0" />
    <path
       id="path10276-7"
       d="m 273.69426,243.70242 -0.006,-0.0287 -0.006,-0.0255 -0.01,-0.0287 -0.006,-0.0255 -0.006,-0.0223 -0.006,-0.0255 -0.01,-0.0223 -0.006,-0.0223 -0.0159,-0.0415 -0.0191,-0.0383 -0.0159,-0.0383 -0.0191,-0.0319 -0.0191,-0.0319 -0.0191,-0.0287 -0.0191,-0.0255 -0.0223,-0.0255 -0.0223,-0.0191 -0.0223,-0.0223 -0.0223,-0.0159 -0.0255,-0.016 -0.0255,-0.0127 -0.0287,-0.0128 -0.0287,-0.0127 -0.0287,-0.01 -0.0287,-0.006 -0.0319,-0.006 -0.0351,-0.006 -0.0319,-0.003 -0.0351,-0.003 -0.0383,-0.003 -0.0383,-0.003 -0.0383,0 -0.0414,-0.003 -0.0415,0 -0.0446,0 -0.0446,0 c -0.45921,0 -0.71433,0 -0.85783,0.60272 l -1.92296,8.32004 c -0.22004,0 -0.58996,0 -0.68244,0.0351 -0.17539,0.0957 -0.27106,0.25511 -0.27106,0.45921 0,0.47834 0.41457,0.47834 0.68244,0.47834 h 1.62 c 0.2902,0 0.66968,0 0.66968,-0.47834 0,-0.49429 -0.3157,-0.49429 -0.88972,-0.49429 l 0.36673,-1.6487 0.23918,-0.96945 1.04598,-5.01945 h 0.0191 l 1.03004,5.01945 h -2.09515 l -0.23918,0.96945 h 2.57351 l 0.36354,1.6487 c -0.57083,0 -0.88972,0 -0.88972,0.49429 0,0.47834 0.38267,0.47834 0.66649,0.47834 h 1.62319 c 0.27106,0 0.68563,0 0.68563,-0.47834 0,-0.2041 -0.0797,-0.36354 -0.27106,-0.44327 -0.0989,-0.051 -0.44646,-0.051 -0.68563,-0.051 z"
       inkscape:connector-curvature="0"
       style="font-style:normal;font-variant:normal;font-weight:normal;font-stretch:normal;letter-spacing:normal;word-spacing:normal;text-anchor:start;fill:#000000;stroke:#000000;stroke-width:0;stroke-linecap:butt;stroke-linejoin:miter;stroke-miterlimit:10.43299961;stroke-opacity:1;stroke-dasharray:none;stroke-dashoffset:0" />
    <path
       id="path10278-1"
       d="m 288.60733,247.80184 0.0957,-0.0319 0.0925,-0.0383 0.0893,-0.0383 0.0893,-0.0446 0.0861,-0.0446 0.0829,-0.0446 0.0829,-0.051 0.0765,-0.051 0.0797,-0.0542 0.0733,-0.0574 0.0702,-0.0606 0.0701,-0.0606 0.067,-0.0638 0.0638,-0.0638 0.0606,-0.067 0.0574,-0.0702 0.0574,-0.0702 0.051,-0.0733 0.0478,-0.0734 0.0446,-0.0765 0.0446,-0.0797 0.0383,-0.0765 0.0351,-0.0829 0.0319,-0.0829 0.0287,-0.0829 0.0255,-0.0861 0.0223,-0.0861 0.0159,-0.0861 0.0159,-0.0893 0.01,-0.0893 0.006,-0.0925 0,-0.0925 c 0,-1.16079 -0.96945,-2.46189 -2.73295,-2.46189 l -0.0606,0.96626 c 1.34893,0 1.69972,0.98858 1.69972,1.51157 0,0.65374 -0.51023,1.69973 -2.04732,1.69973 h -1.64232 v 0.96944 h 2.19401 c 1.34894,0 1.82729,1.16079 1.82729,1.87512 0,0.77811 -0.61548,1.71248 -2.00268,1.71248 h 0 -2.01862 v -3.5876 -0.96944 -3.2113 h 1.98992 l 0.0606,-0.96626 h -3.5876 c -0.22642,0 -0.6378,0 -0.6378,0.47515 0,0.49111 0.39863,0.49111 0.65056,0.49111 h 0.43051 v 7.76834 h -0.43051 c -0.25193,0 -0.65056,0 -0.65056,0.49429 0,0.47835 0.41138,0.47835 0.6378,0.47835 h 3.9065 c 1.79858,0 2.74889,-1.41591 2.74889,-2.65004 0,-1.1002 -0.76216,-2.13342 -2.04732,-2.43319 z"
       inkscape:connector-curvature="0"
       style="font-style:normal;font-variant:normal;font-weight:normal;font-stretch:normal;letter-spacing:normal;word-spacing:normal;text-anchor:start;fill:#000000;stroke:#000000;stroke-width:0;stroke-linecap:butt;stroke-linejoin:miter;stroke-miterlimit:10.43299961;stroke-opacity:1;stroke-dasharray:none;stroke-dashoffset:0" />
    <path
       id="path10276-7-5"
       d="m 302.04072,243.70242 -0.006,-0.0287 -0.006,-0.0255 -0.01,-0.0287 -0.006,-0.0255 -0.006,-0.0223 -0.006,-0.0255 -0.01,-0.0223 -0.006,-0.0223 -0.0159,-0.0415 -0.0191,-0.0383 -0.0159,-0.0383 -0.0191,-0.0319 -0.0191,-0.0319 -0.0191,-0.0287 -0.0191,-0.0255 -0.0223,-0.0255 -0.0223,-0.0191 -0.0223,-0.0223 -0.0223,-0.0159 -0.0255,-0.016 -0.0255,-0.0127 -0.0287,-0.0128 -0.0287,-0.0127 -0.0287,-0.01 -0.0287,-0.006 -0.0319,-0.006 -0.0351,-0.006 -0.0319,-0.003 -0.0351,-0.003 -0.0383,-0.003 -0.0383,-0.003 -0.0383,0 -0.0414,-0.003 -0.0415,0 -0.0446,0 -0.0446,0 c -0.45921,0 -0.71433,0 -0.85783,0.60272 l -1.92296,8.32004 c -0.22004,0 -0.58996,0 -0.68244,0.0351 -0.17539,0.0957 -0.27106,0.25511 -0.27106,0.45921 0,0.47834 0.41457,0.47834 0.68244,0.47834 h 1.62 c 0.2902,0 0.66968,0 0.66968,-0.47834 0,-0.49429 -0.3157,-0.49429 -0.88972,-0.49429 l 0.36673,-1.6487 0.23918,-0.96945 1.04598,-5.01945 h 0.0191 l 1.03004,5.01945 h -2.09515 l -0.23918,0.96945 h 2.57351 l 0.36354,1.6487 c -0.57083,0 -0.88972,0 -0.88972,0.49429 0,0.47834 0.38267,0.47834 0.66649,0.47834 h 1.62319 c 0.27106,0 0.68563,0 0.68563,-0.47834 0,-0.2041 -0.0797,-0.36354 -0.27106,-0.44327 -0.0989,-0.051 -0.44646,-0.051 -0.68563,-0.051 z"
       inkscape:connector-curvature="0"
       style="font-style:normal;font-variant:normal;font-weight:normal;font-stretch:normal;letter-spacing:normal;word-spacing:normal;text-anchor:start;fill:#000000;stroke:#000000;stroke-width:0;stroke-linecap:butt;stroke-linejoin:miter;stroke-miterlimit:10.43299961;stroke-opacity:1;stroke-dasharray:none;stroke-dashoffset:0" />
    <path
       id="path10280-4"
       d="m 318.87888,243.64926 0,-0.0255 0,-0.0255 0,-0.0255 0,-0.0255 -0.003,-0.0542 0,-0.0255 -0.003,-0.0287 -0.003,-0.0255 -0.003,-0.0287 -0.006,-0.0255 -0.006,-0.0287 -0.006,-0.0255 -0.006,-0.0255 -0.01,-0.0255 -0.01,-0.0255 -0.0128,-0.0223 -0.0128,-0.0223 -0.0159,-0.0223 -0.016,-0.0223 -0.0191,-0.0191 -0.0191,-0.0191 -0.01,-0.01 -0.0128,-0.01 -0.0127,-0.006 -0.01,-0.01 -0.0128,-0.006 -0.0159,-0.006 -0.0128,-0.01 -0.0127,-0.003 -0.0159,-0.006 -0.0159,-0.006 -0.016,-0.006 -0.0159,-0.003 -0.0191,-0.003 -0.0159,-0.003 -0.0191,-0.003 -0.0191,-0.003 -0.0191,-0.003 -0.0223,0 -0.0191,0 -0.0223,0 c -0.2902,0 -0.36992,0.15945 -0.44965,0.26787 -0.0287,0.0638 -0.0287,0.0957 -0.23279,0.49429 -0.52937,-0.44964 -1.25646,-0.76216 -2.06965,-0.76216 -2.04732,0 -3.82677,2.12704 -3.82677,5.01626 0,2.91153 1.77945,5.03858 3.84272,5.03858 1.84323,0 3.20811,-1.41591 3.20811,-2.84457 0,-0.52299 -0.37949,-0.52299 -0.5517,-0.52299 -0.14669,0 -0.51023,0 -0.54531,0.4624 -0.10843,1.55303 -1.39358,1.9389 -2.04732,1.9389 -1.44461,0 -2.80949,-1.68378 -2.80949,-4.07232 0,-2.36622 1.38083,-4.05 2.79354,-4.05 0.95351,0 1.8241,0.73027 2.05051,2.01862 0.0478,0.26787 0.0797,0.52299 0.55807,0.52299 0.5517,0 0.5517,-0.33484 0.5517,-0.64736 z"
       inkscape:connector-curvature="0"
       style="font-style:normal;font-variant:normal;font-weight:normal;font-stretch:normal;letter-spacing:normal;word-spacing:normal;text-anchor:start;fill:#000000;stroke:#000000;stroke-width:0;stroke-linecap:butt;stroke-linejoin:miter;stroke-miterlimit:10.43299961;stroke-opacity:1;stroke-dasharray:none;stroke-dashoffset:0" />
    <path
       sodipodi:nodetypes="cc"
       inkscape:connector-curvature="0"
       id="path4645"
       d="m 329.52756,248.03147 c 42.51968,24.80315 0,53.14961 0,53.14961"
       style="fill:none;stroke:#000000;stroke-width:1px;stroke-linecap:butt;stroke-linejoin:miter;stroke-opacity:1;marker-end:url(#Arrow2Mend)" />
    <g
       id="g5385"
       transform="matrix(0.3,0,0,0.3,262.99949,170.44935)">
      <g
         word-spacing="normal"
         letter-spacing="normal"
         font-size-adjust="none"
         font-stretch="normal"
         font-weight="normal"
         font-variant="normal"
         font-style="normal"
         stroke-miterlimit="10.433"
         xml:space="preserve"
         transform="matrix(1.0629921,0,0,-1.0629921,-186.02362,789.27165)"
         id="content"
         style="font-style:normal;font-variant:normal;font-weight:normal;font-stretch:normal;letter-spacing:normal;word-spacing:normal;text-anchor:start;fill:none;stroke:#000000;stroke-width:3.33333325;stroke-linecap:butt;stroke-linejoin:miter;stroke-miterlimit:10.43299961;stroke-opacity:1;stroke-dasharray:none;stroke-dashoffset:0"><path
           id="path5388"
           d="m 460.96,426.18 -0.01,0.07 -0.01,0.07 0,0.06 -0.01,0.07 -0.01,0.06 -0.02,0.05 -0.01,0.06 -0.01,0.05 -0.02,0.06 -0.02,0.05 -0.01,0.05 -0.02,0.04 -0.02,0.05 -0.02,0.04 -0.02,0.04 -0.03,0.04 -0.02,0.04 -0.02,0.04 -0.06,0.07 -0.05,0.06 -0.06,0.06 -0.06,0.05 -0.06,0.04 -0.07,0.05 -0.07,0.03 -0.07,0.04 -0.07,0.02 -0.08,0.03 -0.08,0.02 -0.08,0.02 -0.08,0.01 -0.08,0.01 -0.08,0.01 -0.08,0.01 -0.09,0.01 -0.17,0.01 -0.16,0 -0.17,0 h -1.6 c -0.75,0 -2.04,0 -2.04,-1.49 0,-1.54 1.04,-1.54 2.84,-1.54 v -15.39 c -1.8,0 -2.84,0 -2.84,-1.55 0,-1.5 1.34,-1.5 2.04,-1.5 h 4.39 c 0.74,0 2.04,0 2.04,1.5 0,1.55 -1.05,1.55 -2.83,1.55 v 8.9 c 0,4.44 2.03,6.78 4.08,6.78 1.14,0 1.84,-0.84 1.84,-4.09 v -11.59 c -0.95,0 -2.19,0 -2.19,-1.55 0,-1.5 1.35,-1.5 2.03,-1.5 h 3.75 c 0.74,0 2.03,0 2.03,1.5 0,1.55 -1.04,1.55 -2.82,1.55 v 8.9 c 0,4.44 2.03,6.78 4.07,6.78 1.14,0 1.85,-0.84 1.85,-4.09 v -11.59 c -0.96,0 -2.19,0 -2.19,-1.55 0,-1.5 1.34,-1.5 2.03,-1.5 h 3.75 c 0.74,0 2.03,0 2.03,1.5 0,1.55 -1.04,1.55 -2.83,1.55 v 12.04 c 0,1 0,6.67 -4.43,6.67 -1.5,0 -3.55,-0.64 -4.94,-2.57 -0.75,1.68 -2.14,2.57 -3.78,2.57 -1.6,0 -3.1,-0.68 -4.28,-1.78 z"
           inkscape:connector-curvature="0"
           style="fill:#000000;stroke-width:0" /><path
           id="path5390"
           d="m 496.47,419.7 h 7.08 c 0.59,0 2.34,0 2.34,1.75 0,1.73 -1.75,1.73 -2.34,1.73 h -7.08 v 7.13 c 0,0.61 0,2.34 -1.75,2.34 -1.73,0 -1.73,-1.73 -1.73,-2.34 v -7.13 h -7.08 c -0.59,0 -2.34,0 -2.34,-1.73 0,-1.75 1.75,-1.75 2.34,-1.75 h 7.08 v -7.13 c 0,-0.59 0,-2.34 1.73,-2.34 1.75,0 1.75,1.75 1.75,2.34 z"
           inkscape:connector-curvature="0"
           style="fill:#000000;stroke-width:0" /><path
           id="path5392"
           d="m 523.22,425.64 0,0.14 0,0.13 -0.01,0.13 0,0.12 -0.01,0.12 -0.02,0.11 -0.01,0.11 -0.02,0.1 -0.02,0.1 -0.03,0.09 -0.03,0.08 -0.03,0.08 -0.04,0.08 -0.04,0.07 -0.05,0.07 -0.05,0.06 -0.05,0.05 -0.06,0.06 -0.07,0.04 -0.07,0.05 -0.08,0.04 -0.08,0.04 -0.09,0.03 -0.1,0.03 -0.1,0.02 -0.11,0.02 -0.12,0.02 -0.12,0.01 -0.13,0.01 -0.14,0.01 -0.15,0.01 -0.07,0 -0.08,0 h -7.08 c -0.75,0 -2.05,0 -2.05,-1.49 0,-1.54 1.3,-1.54 2.05,-1.54 h 5.62 v -15.39 h -6.03 c -0.79,0 -2.03,0 -2.03,-1.55 0,-1.5 1.3,-1.5 2.03,-1.5 h 14.71 c 0.75,0 2.04,0 2.04,1.5 0,1.55 -1.29,1.55 -2.04,1.55 h -5.24 z"
           inkscape:connector-curvature="0"
           style="fill:#000000;stroke-width:0" /><path
           id="path5394"
           d="m 523.22,434.2 0,0.13 -0.01,0.13 -0.02,0.12 -0.02,0.13 -0.02,0.12 -0.04,0.11 -0.04,0.12 -0.04,0.11 -0.05,0.11 -0.05,0.11 -0.06,0.11 -0.07,0.1 -0.07,0.09 -0.07,0.1 -0.08,0.09 -0.08,0.08 -0.08,0.08 -0.09,0.08 -0.1,0.08 -0.09,0.06 -0.11,0.07 -0.1,0.06 -0.11,0.05 -0.11,0.05 -0.11,0.05 -0.12,0.03 -0.11,0.04 -0.13,0.02 -0.12,0.03 -0.12,0.01 -0.13,0.01 -0.13,0 c -1.39,0 -2.5,-1.09 -2.5,-2.48 0,-1.39 1.11,-2.49 2.5,-2.49 1.39,0 2.48,1.1 2.48,2.49 z"
           inkscape:connector-curvature="0"
           style="fill:#000000;stroke-width:0" /></g>    </g>
    <g
       word-spacing="normal"
       letter-spacing="normal"
       font-size-adjust="none"
       font-stretch="normal"
       font-weight="normal"
       font-variant="normal"
       font-style="normal"
       stroke-miterlimit="10.433"
       xml:space="preserve"
       transform="matrix(0.31889763,0,0,-0.31889763,153.65906,498.89726)"
       id="g5497"
       style="font-style:normal;font-variant:normal;font-weight:normal;font-stretch:normal;letter-spacing:normal;word-spacing:normal;text-anchor:start;fill:none;stroke:#000000;stroke-width:3.33333325;stroke-linecap:butt;stroke-linejoin:miter;stroke-miterlimit:10.43299961;stroke-opacity:1;stroke-dasharray:none;stroke-dashoffset:0"><path
         id="path5499"
         d="m 464.475,633.4589 0,0.08 0,0.08 0,0.08 0,0.08 -0.01,0.17 -0.01,0.08 0,0.09 -0.01,0.08 -0.02,0.09 -0.01,0.08 -0.02,0.09 -0.02,0.08 -0.03,0.08 -0.02,0.08 -0.04,0.08 -0.03,0.07 -0.05,0.07 -0.04,0.07 -0.06,0.07 -0.05,0.06 -0.07,0.06 -0.03,0.03 -0.04,0.03 -0.03,0.02 -0.04,0.03 -0.04,0.02 -0.05,0.02 -0.04,0.03 -0.04,0.01 -0.05,0.02 -0.05,0.02 -0.05,0.02 -0.05,0.01 -0.06,0.01 -0.06,0.01 -0.06,0.01 -0.06,0.01 -0.06,0.01 -0.06,0 -0.07,0 -0.07,0 c -0.95,0 -1.25,-0.59 -1.5,-1.18 -1.89,-4.24 -4.48,-4.79 -5.42,-4.89 -0.8,-0.05 -1.85,-0.15 -1.85,-1.55 0,-1.24 0.89,-1.49 1.64,-1.49 0.96,0 2.99,0.3 5.19,2.19 v -21.01 h -4.54 c -0.8,0 -1.99,0 -1.99,-1.55 0,-1.5 1.25,-1.5 1.99,-1.5 h 12.51 c 0.75,0 1.99,0 1.99,1.5 0,1.55 -1.19,1.55 -1.99,1.55 h -4.53 z"
         inkscape:connector-curvature="0"
         style="fill:#000000;stroke-width:0" /><path
         id="path5501"
         d="m 364.0011,607.3989 -0.04,-0.04 -0.04,-0.03 -0.04,-0.04 -0.04,-0.04 -0.08,-0.07 -0.07,-0.06 -0.03,-0.04 -0.03,-0.03 -0.04,-0.04 -0.03,-0.03 -0.03,-0.04 -0.02,-0.03 -0.03,-0.04 -0.02,-0.04 -0.03,-0.03 -0.02,-0.04 -0.02,-0.04 -0.02,-0.04 -0.02,-0.05 -0.02,-0.04 -0.01,-0.04 -0.02,-0.05 -0.01,-0.05 -0.01,-0.05 -0.01,-0.05 -0.01,-0.06 0,-0.05 -0.01,-0.06 0,-0.06 0,-0.06 c 0,-1.55 1.25,-1.55 2.05,-1.55 h 16.87 c 1.66,0 2,0.45 2,2.05 v 1.29 c 0,0.94 0,2.03 -1.69,2.03 -1.75,0 -1.75,-0.93 -1.75,-2.32 h -11.86 c 2.94,2.53 7.72,6.26 9.86,8.26 3.14,2.78 5.44,5.97 5.44,9.97 0,5.97 -5.03,9.7 -11.11,9.7 -5.87,0 -9.81,-4.07 -9.81,-8.31 0,-1.84 1.39,-2.39 2.23,-2.39 1.05,0 2.21,0.84 2.21,2.23 0,0.6 -0.25,1.25 -0.71,1.6 0.75,2.3 3.1,3.84 5.83,3.84 4.08,0 7.92,-2.29 7.92,-6.67 0,-3.5 -2.43,-6.39 -5.73,-9.12 z"
         inkscape:connector-curvature="0"
         style="fill:#000000;stroke-width:0" /><path
         id="path5503"
         d="m 423.38055,621.4239 0.26,0.17 0.25,0.18 0.24,0.18 0.24,0.19 0.22,0.19 0.22,0.2 0.21,0.21 0.2,0.21 0.19,0.21 0.18,0.21 0.18,0.23 0.17,0.22 0.16,0.23 0.15,0.23 0.14,0.23 0.14,0.24 0.12,0.24 0.12,0.24 0.11,0.25 0.1,0.24 0.1,0.25 0.08,0.25 0.08,0.25 0.07,0.25 0.06,0.25 0.05,0.26 0.05,0.25 0.04,0.26 0.02,0.25 0.02,0.25 0.02,0.26 0,0.25 c 0,3.69 -3.64,7.01 -9.36,7.01 -5.98,0 -9.47,-2.39 -9.47,-5.82 0,-1.65 1.24,-2.35 2.24,-2.35 1.04,0 2.2,0.86 2.2,2.25 0,0.69 -0.31,1.19 -0.45,1.35 1.54,1.54 5.07,1.54 5.53,1.54 3.39,0 5.87,-1.79 5.87,-4.03 0,-1.5 -0.75,-3.25 -2.09,-4.34 -1.59,-1.3 -2.84,-1.39 -4.62,-1.5 -2.85,-0.19 -3.6,-0.19 -3.6,-1.64 0,-1.55 1.2,-1.55 2,-1.55 h 2.28 c 4.94,0 7.49,-3.33 7.49,-6.22 0,-3.05 -2.8,-6.19 -7.33,-6.19 -2,0 -5.83,0.57 -7.13,2.89 0.25,0.25 0.6,0.55 0.6,1.55 0,1.2 -0.96,2.2 -2.19,2.2 -1.16,0 -2.25,-0.75 -2.25,-2.34 0,-4.44 4.84,-7.33 10.97,-7.33 6.51,0 10.76,4.58 10.76,9.22 0,3.53 -2.34,6.47 -5.64,7.97 z"
         inkscape:connector-curvature="0"
         style="fill:#000000;stroke-width:0" /></g>    <g
       id="g5613"
       transform="matrix(0.3,0,0,0.3,221.73396,198.70173)">
      <g
         word-spacing="normal"
         letter-spacing="normal"
         font-size-adjust="none"
         font-stretch="normal"
         font-weight="normal"
         font-variant="normal"
         font-style="normal"
         stroke-miterlimit="10.433"
         xml:space="preserve"
         transform="matrix(1.0629921,0,0,-1.0629921,-186.02362,789.27165)"
         id="g5615"
         style="font-style:normal;font-variant:normal;font-weight:normal;font-stretch:normal;letter-spacing:normal;word-spacing:normal;text-anchor:start;fill:none;stroke:#000000;stroke-width:3.33333325;stroke-linecap:butt;stroke-linejoin:miter;stroke-miterlimit:10.43299961;stroke-opacity:1;stroke-dasharray:none;stroke-dashoffset:0"><path
           id="path5617"
           d="m 469.32,425.57 -0.33,0 -0.34,-0.01 -0.35,-0.02 -0.36,-0.04 -0.37,-0.04 -0.37,-0.05 -0.38,-0.07 -0.38,-0.07 -0.38,-0.09 -0.39,-0.11 -0.39,-0.12 -0.39,-0.13 -0.39,-0.14 -0.38,-0.17 -0.39,-0.18 -0.38,-0.19 v 9.47 h 11.95 c 0.75,0 1.99,0 1.99,1.48 0,1.55 -1.19,1.55 -1.99,1.55 h -13.41 c -1.64,0 -1.98,-0.44 -1.98,-2.05 v -13.25 c 0,-0.89 0,-2.03 1.59,-2.03 0.89,0 1.1,0.25 1.49,0.73 1.34,1.6 3.39,2.5 6.28,2.5 4.09,0 6.33,-3.64 6.33,-6.87 0,-3.99 -3.53,-6.99 -7.72,-6.99 -1.41,0 -4.59,0.41 -5.99,3.14 0.25,0.25 0.66,0.61 0.66,1.6 0,1.45 -1.16,2.25 -2.2,2.25 -0.75,0 -2.24,-0.46 -2.24,-2.39 0,-4.14 4.19,-7.63 9.77,-7.63 6.22,0 11.16,4.49 11.16,10.02 0,5.03 -3.85,9.9 -9.72,9.9 z"
           inkscape:connector-curvature="0"
           style="fill:#000000;stroke-width:0" /></g>    </g>
  </g>
</svg>
