<?xml version="1.0" encoding="UTF-8" standalone="no"?>
<!-- Created with Inkscape (http://www.inkscape.org/) -->

<svg
   xmlns:dc="http://purl.org/dc/elements/1.1/"
   xmlns:cc="http://creativecommons.org/ns#"
   xmlns:rdf="http://www.w3.org/1999/02/22-rdf-syntax-ns#"
   xmlns:svg="http://www.w3.org/2000/svg"
   xmlns="http://www.w3.org/2000/svg"
   xmlns:sodipodi="http://sodipodi.sourceforge.net/DTD/sodipodi-0.dtd"
   xmlns:inkscape="http://www.inkscape.org/namespaces/inkscape"
   width="210mm"
   height="297mm"
   id="svg10230"
   version="1.1"
   inkscape:version="0.48.4 r9939"
   sodipodi:docname="quicksearch-1.svg">
  <sodipodi:namedview
     id="base"
     pagecolor="#ffffff"
     bordercolor="#666666"
     borderopacity="1.0"
     inkscape:pageopacity="0.0"
     inkscape:pageshadow="2"
     inkscape:zoom="1.979899"
     inkscape:cx="350.57067"
     inkscape:cy="745.35039"
     inkscape:document-units="px"
     inkscape:current-layer="layer1"
     showgrid="true"
     inkscape:window-width="1278"
     inkscape:window-height="779"
     inkscape:window-x="0"
     inkscape:window-y="19"
     inkscape:window-maximized="1"
     inkscape:snap-object-midpoints="true">
    <inkscape:grid
       spacingy="1mm"
       spacingx="1mm"
       units="mm"
       snapvisiblegridlinesonly="true"
       enabled="true"
       visible="true"
       empspacing="5"
       id="grid10238"
       type="xygrid" />
  </sodipodi:namedview>
  <defs
     id="defs10232" />
  <metadata
     id="metadata10235">
    <rdf:RDF>
      <cc:Work
         rdf:about="">
        <dc:format>image/svg+xml</dc:format>
        <dc:type
           rdf:resource="http://purl.org/dc/dcmitype/StillImage" />
        <dc:title></dc:title>
      </cc:Work>
    </rdf:RDF>
  </metadata>
  <g
     id="layer1"
     inkscape:groupmode="layer"
     inkscape:label="Ebene 1">
    <path
       style="font-style:normal;font-variant:normal;font-weight:normal;font-stretch:normal;letter-spacing:normal;word-spacing:normal;text-anchor:start;fill:#000000;stroke:#000000;stroke-width:0;stroke-linecap:butt;stroke-linejoin:miter;stroke-miterlimit:10.43299961;stroke-opacity:1;stroke-dasharray:none;stroke-dashoffset:0"
       inkscape:connector-curvature="0"
       d="m 273.69407,282.67881 -0.006,-0.0287 -0.006,-0.0255 -0.01,-0.0287 -0.006,-0.0255 -0.006,-0.0223 -0.006,-0.0255 -0.01,-0.0223 -0.006,-0.0223 -0.0159,-0.0415 -0.0191,-0.0383 -0.0159,-0.0383 -0.0191,-0.0319 -0.0191,-0.0319 -0.0191,-0.0287 -0.0191,-0.0255 -0.0223,-0.0255 -0.0223,-0.0191 -0.0223,-0.0223 -0.0223,-0.0159 -0.0255,-0.016 -0.0255,-0.0127 -0.0287,-0.0128 -0.0287,-0.0127 -0.0287,-0.01 -0.0287,-0.006 -0.0319,-0.006 -0.0351,-0.006 -0.0319,-0.003 -0.0351,-0.003 -0.0383,-0.003 -0.0383,-0.003 -0.0383,0 -0.0414,-0.003 -0.0415,0 -0.0446,0 -0.0446,0 c -0.45921,0 -0.71433,0 -0.85783,0.60272 l -1.92296,8.32004 c -0.22004,0 -0.58996,0 -0.68244,0.0351 -0.17539,0.0957 -0.27106,0.25511 -0.27106,0.45921 0,0.47834 0.41457,0.47834 0.68244,0.47834 h 1.62 c 0.2902,0 0.66968,0 0.66968,-0.47834 0,-0.49429 -0.3157,-0.49429 -0.88972,-0.49429 l 0.36673,-1.6487 0.23918,-0.96945 1.04598,-5.01945 h 0.0191 l 1.03004,5.01945 h -2.09515 l -0.23918,0.96945 h 2.57351 l 0.36354,1.6487 c -0.57083,0 -0.88972,0 -0.88972,0.49429 0,0.47834 0.38267,0.47834 0.66649,0.47834 h 1.62319 c 0.27106,0 0.68563,0 0.68563,-0.47834 0,-0.2041 -0.0797,-0.36354 -0.27106,-0.44327 -0.0989,-0.051 -0.44646,-0.051 -0.68563,-0.051 z"
       id="path10276" />
    <path
       style="font-style:normal;font-variant:normal;font-weight:normal;font-stretch:normal;letter-spacing:normal;word-spacing:normal;text-anchor:start;fill:#000000;stroke:#000000;stroke-width:0;stroke-linecap:butt;stroke-linejoin:miter;stroke-miterlimit:10.43299961;stroke-opacity:1;stroke-dasharray:none;stroke-dashoffset:0"
       inkscape:connector-curvature="0"
       d="m 288.60714,286.77824 0.0957,-0.0319 0.0925,-0.0383 0.0893,-0.0383 0.0893,-0.0446 0.0861,-0.0446 0.0829,-0.0446 0.0829,-0.051 0.0765,-0.051 0.0797,-0.0542 0.0733,-0.0574 0.0702,-0.0606 0.0701,-0.0606 0.067,-0.0638 0.0638,-0.0638 0.0606,-0.067 0.0574,-0.0702 0.0574,-0.0702 0.051,-0.0733 0.0478,-0.0734 0.0446,-0.0765 0.0446,-0.0797 0.0383,-0.0765 0.0351,-0.0829 0.0319,-0.0829 0.0287,-0.0829 0.0255,-0.0861 0.0223,-0.0861 0.0159,-0.0861 0.0159,-0.0893 0.01,-0.0893 0.006,-0.0925 0,-0.0925 c 0,-1.16079 -0.96945,-2.46189 -2.73295,-2.46189 l -0.0606,0.96626 c 1.34893,0 1.69972,0.98858 1.69972,1.51157 0,0.65374 -0.51023,1.69973 -2.04732,1.69973 h -1.64232 v 0.96944 h 2.19401 c 1.34894,0 1.82729,1.16079 1.82729,1.87512 0,0.77811 -0.61548,1.71248 -2.00268,1.71248 h 0 -2.01862 v -3.5876 -0.96944 -3.2113 h 1.98992 l 0.0606,-0.96626 h -3.5876 c -0.22642,0 -0.6378,0 -0.6378,0.47515 0,0.49111 0.39863,0.49111 0.65056,0.49111 h 0.43051 v 7.76834 h -0.43051 c -0.25193,0 -0.65056,0 -0.65056,0.49429 0,0.47835 0.41138,0.47835 0.6378,0.47835 h 3.9065 c 1.79858,0 2.74889,-1.41591 2.74889,-2.65004 0,-1.1002 -0.76216,-2.13342 -2.04732,-2.43319 z"
       id="path10278" />
    <path
       style="font-style:normal;font-variant:normal;font-weight:normal;font-stretch:normal;letter-spacing:normal;word-spacing:normal;text-anchor:start;fill:#000000;stroke:#000000;stroke-width:0;stroke-linecap:butt;stroke-linejoin:miter;stroke-miterlimit:10.43299961;stroke-opacity:1;stroke-dasharray:none;stroke-dashoffset:0"
       inkscape:connector-curvature="0"
       d="m 304.70652,282.62779 0,-0.0255 0,-0.0255 0,-0.0255 0,-0.0255 -0.003,-0.0542 0,-0.0255 -0.003,-0.0287 -0.003,-0.0255 -0.003,-0.0287 -0.006,-0.0255 -0.006,-0.0287 -0.006,-0.0255 -0.006,-0.0255 -0.01,-0.0255 -0.01,-0.0255 -0.0128,-0.0223 -0.0128,-0.0223 -0.0159,-0.0223 -0.016,-0.0223 -0.0191,-0.0191 -0.0191,-0.0191 -0.01,-0.01 -0.0128,-0.01 -0.0127,-0.006 -0.01,-0.01 -0.0128,-0.006 -0.0159,-0.006 -0.0128,-0.01 -0.0127,-0.003 -0.0159,-0.006 -0.0159,-0.006 -0.016,-0.006 -0.0159,-0.003 -0.0191,-0.003 -0.0159,-0.003 -0.0191,-0.003 -0.0191,-0.003 -0.0191,-0.003 -0.0223,0 -0.0191,0 -0.0223,0 c -0.2902,0 -0.36992,0.15945 -0.44965,0.26787 -0.0287,0.0638 -0.0287,0.0957 -0.23279,0.49429 -0.52937,-0.44964 -1.25646,-0.76216 -2.06965,-0.76216 -2.04732,0 -3.82677,2.12704 -3.82677,5.01626 0,2.91153 1.77945,5.03858 3.84272,5.03858 1.84323,0 3.20811,-1.41591 3.20811,-2.84457 0,-0.52299 -0.37949,-0.52299 -0.5517,-0.52299 -0.14669,0 -0.51023,0 -0.54531,0.4624 -0.10843,1.55303 -1.39358,1.9389 -2.04732,1.9389 -1.44461,0 -2.80949,-1.68378 -2.80949,-4.07232 0,-2.36622 1.38083,-4.05 2.79354,-4.05 0.95351,0 1.8241,0.73027 2.05051,2.01862 0.0478,0.26787 0.0797,0.52299 0.55807,0.52299 0.5517,0 0.5517,-0.33484 0.5517,-0.64736 z"
       id="path10280" />
    <path
       style="font-style:normal;font-variant:normal;font-weight:normal;font-stretch:normal;letter-spacing:normal;word-spacing:normal;text-anchor:start;fill:#000000;stroke:#000000;stroke-width:0;stroke-linecap:butt;stroke-linejoin:miter;stroke-miterlimit:10.43299961;stroke-opacity:1;stroke-dasharray:none;stroke-dashoffset:0"
       inkscape:connector-curvature="0"
       d="m 312.30248,282.15423 -0.0223,0 -0.0255,0 -0.0255,0 -0.0255,0.003 -0.0542,0 -0.0287,0.003 -0.0255,0.003 -0.0287,0.003 -0.0255,0.003 -0.0287,0.006 -0.0255,0.003 -0.0255,0.01 -0.0255,0.006 -0.0255,0.01 -0.0255,0.0128 -0.0255,0.01 -0.0223,0.0159 -0.0223,0.0159 -0.0223,0.016 -0.0191,0.0191 -0.0191,0.0223 -0.01,0.01 -0.006,0.0128 -0.01,0.0128 -0.006,0.0128 -0.01,0.0127 -0.006,0.0128 -0.006,0.0159 -0.006,0.0127 -0.006,0.016 -0.003,0.0159 -0.006,0.0159 -0.003,0.0191 -0.006,0.0191 -0.003,0.0159 -0.003,0.0223 0,0.0191 -0.003,0.0191 0,0.0223 -0.003,0.0223 0,0.0223 c 0,0.47197 0.40818,0.47197 0.64736,0.47197 h 0.35079 v 7.76834 h -0.35079 c -0.25193,0 -0.64736,0 -0.64736,0.49429 0,0.47835 0.40818,0.47835 0.64736,0.47835 h 3.27508 c 2.0824,0 3.47598,-2.22272 3.47598,-4.78346 0,-2.54162 -1.36488,-4.92378 -3.47598,-4.92378 l -0.29977,0.96626 c 1.7954,0 2.68193,2.11429 2.68193,3.95752 0,1.85917 -0.91842,3.81082 -2.68193,3.81082 h -1.53071 V 283.12 h 1.53071 l 0.29977,-0.96626 z"
       id="path10282" />
    <path
       style="font-style:normal;font-variant:normal;font-weight:normal;font-stretch:normal;letter-spacing:normal;word-spacing:normal;text-anchor:start;fill:#000000;stroke:#000000;stroke-width:0;stroke-linecap:butt;stroke-linejoin:miter;stroke-miterlimit:10.43299961;stroke-opacity:1;stroke-dasharray:none;stroke-dashoffset:0"
       inkscape:connector-curvature="0"
       d="m 196.49335,224.21217 0.0373,0.0475 0.0373,0.0441 0.0407,0.0407 0.0441,0.0407 0.0441,0.0373 0.0475,0.0339 0.0508,0.0305 0.0508,0.0305 0.0508,0.0271 0.0542,0.0237 0.0576,0.0237 0.0576,0.0203 0.0576,0.0203 0.0576,0.017 0.061,0.0136 0.061,0.0136 0.0644,0.0136 0.061,0.0102 0.0644,0.0102 0.0644,0.007 0.12543,0.0136 0.1322,0.0102 0.12543,0.007 0.12881,0.003 0.12543,0 0.12203,0 c 0.47797,0 0.84747,0 0.84747,-0.52542 0,-0.50848 -0.42374,-0.50848 -0.67797,-0.50848 -0.70848,0 -0.87798,-0.078 -1.01357,-0.13221 v -3.64748 c 0,-1.19662 -0.90848,-2.61697 -3.33901,-2.61697 -0.72882,0 -2.45426,0 -2.45426,1.23391 0,0.5017 0.35594,0.77288 0.76272,0.77288 0.25424,0 0.72543,-0.14915 0.74238,-0.77288 0,-0.13899 0.0169,-0.15255 0.35593,-0.18645 0.23729,-0.0136 0.45425,-0.0136 0.60679,-0.0136 1.28136,0 2.16273,0.51864 2.16273,1.71865 v 0.99662 1.42035 c 0,0.38644 0,0.74238 -0.65764,1.04408 -0.61017,0.29152 -1.37289,0.29152 -1.50509,0.29152 -1.04747,0 -1.74239,-0.57966 -1.74239,-1.2339 0,-0.82713 1.45764,-1.45425 3.90512,-1.52205 h 0 v -0.99662 c -2.98986,0.0475 -5.07123,0.89492 -5.07123,2.51867 0,1.16272 1.06442,2.26103 2.78646,2.26103 0.62713,0 1.67459,-0.11864 2.46782,-0.64068 z"
       id="path10314" />
    <path
       style="font-style:normal;font-variant:normal;font-weight:normal;font-stretch:normal;letter-spacing:normal;word-spacing:normal;text-anchor:start;fill:#000000;stroke:#000000;stroke-width:0;stroke-linecap:butt;stroke-linejoin:miter;stroke-miterlimit:10.43299961;stroke-opacity:1;stroke-dasharray:none;stroke-dashoffset:0"
       inkscape:connector-curvature="0"
       d="m 210.84939,223.99522 0.0644,0.0644 0.0678,0.061 0.0644,0.0576 0.0644,0.0542 0.0678,0.0542 0.0644,0.0475 0.0644,0.0475 0.0644,0.0441 0.0678,0.0407 0.0644,0.0373 0.0644,0.0373 0.0644,0.0339 0.0644,0.0305 0.0644,0.0305 0.0644,0.0271 0.061,0.0237 0.0644,0.0237 0.061,0.0203 0.061,0.0203 0.061,0.017 0.061,0.0136 0.061,0.0136 0.0576,0.0102 0.0576,0.0102 0.061,0.0102 0.0542,0.007 0.11187,0.0102 0.10847,0.007 0.1017,0.003 -0.0475,-1.02713 c -1.31865,0 -1.91188,-1.48814 -1.91188,-2.29832 v -1.2373 c 0,-0.99322 0.97967,-1.88815 2.04409,-1.88815 1.25085,0 2.23052,1.23391 2.23052,2.70172 0,1.62035 -1.17967,2.72205 -2.36273,2.72205 l 0.0475,1.02713 c 1.84408,0 3.48138,-1.60679 3.48138,-3.74918 0,-2.07798 -1.50509,-3.72884 -3.29494,-3.72884 -0.81017,0 -1.5695,0.30169 -2.14578,0.82373 0,-0.49153 -0.0305,-0.72543 -0.67119,-0.72543 h -1.23391 c -0.27119,0 -0.69492,0 -0.69492,0.52543 0,0.5017 0.44068,0.5017 0.67797,0.5017 h 0.75594 v 8.96956 h -0.73899 c -0.27119,0 -0.69492,0 -0.69492,0.52204 0,0.50848 0.44068,0.50848 0.67797,0.50848 h 2.68477 c 0.2339,0 0.67458,0 0.67458,-0.50848 0,-0.52204 -0.42034,-0.52204 -0.69153,-0.52204 h -0.74577 z"
       id="path10316" />
    <path
       style="font-style:normal;font-variant:normal;font-weight:normal;font-stretch:normal;letter-spacing:normal;word-spacing:normal;text-anchor:start;fill:#000000;stroke:#000000;stroke-width:0;stroke-linecap:butt;stroke-linejoin:miter;stroke-miterlimit:10.43299961;stroke-opacity:1;stroke-dasharray:none;stroke-dashoffset:0"
       inkscape:connector-curvature="0"
       d="m 255.66408,300.54061 -0.0746,-0.0136 -0.0712,-0.0136 -0.13898,-0.0237 -0.13898,-0.0203 -0.13899,-0.0237 -0.0712,-0.0136 -0.0678,-0.0102 -0.0712,-0.0136 -0.0746,-0.0136 -0.0746,-0.0136 -0.0746,-0.0136 -0.0746,-0.0136 -0.0814,-0.0169 c -0.48475,-0.0678 -1.63391,-0.2678 -1.63391,-0.93221 0,-0.4373 0.53898,-0.95594 2.14238,-0.95594 1.4068,0 1.63731,0.50169 1.69154,0.94238 0.0169,0.28474 0.0475,0.57627 0.57289,0.57627 0.59322,0 0.59322,-0.35593 0.59322,-0.69492 v -1.16272 c 0,-0.27119 0,-0.69492 -0.50847,-0.69492 -0.4034,0 -0.47119,0.23729 -0.50509,0.35593 -0.74577,-0.35593 -1.48815,-0.35593 -1.81019,-0.35593 -2.81697,0 -3.20341,1.38306 -3.20341,1.98985 0,1.55933 1.7695,1.84408 3.32545,2.07798 0.82712,0.13898 2.17629,0.35593 2.17629,1.25085 0,0.62374 -0.62374,1.18645 -2.16273,1.18645 -0.79323,0 -1.739,-0.18644 -2.15934,-1.50509 -0.0847,-0.30848 -0.15254,-0.49153 -0.59323,-0.49153 -0.58644,0 -0.58644,0.35254 -0.58644,0.69153 v 1.6373 c 0,0.27119 0,0.69492 0.5017,0.69492 0.15254,0 0.42373,-0.0169 0.62373,-0.64068 0.82713,0.60678 1.72205,0.64068 2.20002,0.64068 2.66782,0 3.21019,-1.4034 3.21019,-2.21358 0,-1.75594 -2.18307,-2.10849 -2.72205,-2.19323 z"
       id="path10318" />
    <path
       style="font-style:normal;font-variant:normal;font-weight:normal;font-stretch:normal;letter-spacing:normal;word-spacing:normal;text-anchor:start;fill:#000000;stroke:#000000;stroke-width:0;stroke-linecap:butt;stroke-linejoin:miter;stroke-miterlimit:10.43299961;stroke-opacity:1;stroke-dasharray:none;stroke-dashoffset:0"
       inkscape:connector-curvature="0"
       d="m 245.36152,217.97822 -0.003,-0.0237 -0.003,-0.0237 -0.003,-0.0203 0,-0.0237 -0.007,-0.0203 -0.003,-0.0169 -0.003,-0.0203 -0.003,-0.017 -0.007,-0.0203 -0.007,-0.0169 -0.003,-0.017 -0.007,-0.0136 -0.007,-0.0169 -0.007,-0.0136 -0.007,-0.0136 -0.0102,-0.0136 -0.007,-0.0136 -0.0102,-0.0136 -0.0169,-0.0237 -0.017,-0.0203 -0.0203,-0.0203 -0.0203,-0.017 -0.0203,-0.0136 -0.0237,-0.017 -0.0237,-0.0102 -0.0237,-0.0136 -0.0271,-0.007 -0.0237,-0.0102 -0.0271,-0.007 -0.0271,-0.007 -0.0271,-0.003 -0.0271,-0.003 -0.0271,-0.003 -0.0271,-0.003 -0.0305,-0.003 -0.0576,-0.003 -0.0576,0 -0.0542,0 h -0.54238 c -0.25424,0 -0.69153,0 -0.69153,0.50509 0,0.52204 0.35255,0.52204 0.96272,0.52204 v 5.21699 c -0.61017,0 -0.96272,0 -0.96272,0.52543 0,0.50847 0.45424,0.50847 0.69153,0.50847 h 1.48815 c 0.25085,0 0.68814,0 0.68814,-0.50847 0,-0.52543 -0.35254,-0.52543 -0.95594,-0.52543 v -3.01697 c 0,-1.5051 0.68814,-2.29833 1.37967,-2.29833 0.38645,0 0.62713,0.28475 0.62713,1.38645 v 3.92885 c -0.32204,0 -0.74238,0 -0.74238,0.52543 0,0.50847 0.45424,0.50847 0.68814,0.50847 h 1.2712 c 0.25085,0 0.68814,0 0.68814,-0.50847 0,-0.52543 -0.35255,-0.52543 -0.95933,-0.52543 v -3.01697 c 0,-1.5051 0.69153,-2.29833 1.38306,-2.29833 0.38644,0 0.62712,0.28475 0.62712,1.38645 v 3.92885 c -0.32542,0 -0.74238,0 -0.74238,0.52543 0,0.50847 0.45424,0.50847 0.68814,0.50847 h 1.2712 c 0.25085,0 0.68814,0 0.68814,-0.50847 0,-0.52543 -0.35593,-0.52543 -0.95933,-0.52543 v -4.08139 c 0,-0.33898 0,-2.26103 -1.5017,-2.26103 -0.50848,0 -1.2034,0.21695 -1.67459,0.87119 -0.25424,-0.5695 -0.72543,-0.87119 -1.28137,-0.87119 -0.54238,0 -1.05085,0.23051 -1.45086,0.60339 z"
       id="path10320" />
    <path
       style="font-style:normal;font-variant:normal;font-weight:normal;font-stretch:normal;letter-spacing:normal;word-spacing:normal;text-anchor:start;fill:#000000;stroke:#000000;stroke-width:0;stroke-linecap:butt;stroke-linejoin:miter;stroke-miterlimit:10.43299961;stroke-opacity:1;stroke-dasharray:none;stroke-dashoffset:0"
       inkscape:connector-curvature="0"
       d="m 266.47016,218.16127 0,-0.0474 -0.003,-0.0441 0,-0.0441 -0.003,-0.0407 -0.003,-0.0407 -0.003,-0.0373 -0.007,-0.0373 -0.007,-0.0339 -0.007,-0.0339 -0.007,-0.0305 -0.0102,-0.0271 -0.0136,-0.0271 -0.0102,-0.0271 -0.017,-0.0237 -0.0136,-0.0237 -0.017,-0.0203 -0.0203,-0.0169 -0.0203,-0.0203 -0.0237,-0.0136 -0.0237,-0.017 -0.0271,-0.0136 -0.0271,-0.0136 -0.0305,-0.0102 -0.0339,-0.0102 -0.0339,-0.007 -0.0373,-0.007 -0.0407,-0.007 -0.0407,-0.003 -0.0441,-0.003 -0.0475,-0.003 -0.0474,-0.003 -0.0271,0 -0.0271,0 h -2.40002 c -0.25424,0 -0.69153,0 -0.69153,0.50509 0,0.52204 0.43729,0.52204 0.69153,0.52204 h 1.90849 v 5.21699 h -2.04408 c -0.27119,0 -0.68815,0 -0.68815,0.52543 0,0.50847 0.4373,0.50847 0.68815,0.50847 h 4.98308 c 0.25424,0 0.69492,0 0.69492,-0.50847 0,-0.52543 -0.44068,-0.52543 -0.69492,-0.52543 h -1.77289 z"
       id="path10322" />
    <path
       style="font-style:normal;font-variant:normal;font-weight:normal;font-stretch:normal;letter-spacing:normal;word-spacing:normal;text-anchor:start;fill:#000000;stroke:#000000;stroke-width:0;stroke-linecap:butt;stroke-linejoin:miter;stroke-miterlimit:10.43299961;stroke-opacity:1;stroke-dasharray:none;stroke-dashoffset:0"
       inkscape:connector-curvature="0"
       d="m 266.47016,215.25956 -0.003,-0.0441 -0.003,-0.0441 -0.003,-0.0407 -0.007,-0.0441 -0.0102,-0.0407 -0.0102,-0.0373 -0.0136,-0.0407 -0.017,-0.0373 -0.017,-0.0373 -0.0169,-0.0373 -0.0203,-0.0373 -0.0203,-0.0339 -0.0237,-0.0305 -0.0271,-0.0339 -0.0237,-0.0305 -0.0271,-0.0271 -0.0305,-0.0271 -0.0305,-0.0271 -0.0305,-0.0271 -0.0339,-0.0203 -0.0339,-0.0237 -0.0373,-0.0203 -0.0339,-0.017 -0.0373,-0.0169 -0.0407,-0.017 -0.0373,-0.0102 -0.0407,-0.0136 -0.0407,-0.007 -0.0441,-0.0102 -0.0407,-0.003 -0.0441,-0.003 -0.0441,0 c -0.47119,0 -0.84746,0.3695 -0.84746,0.84069 0,0.47119 0.37627,0.84407 0.84746,0.84407 0.47119,0 0.84408,-0.37288 0.84408,-0.84407 z"
       id="path10324" />
    <path
       style="font-style:normal;font-variant:normal;font-weight:normal;font-stretch:normal;letter-spacing:normal;word-spacing:normal;text-anchor:start;fill:#000000;stroke:#000000;stroke-width:0;stroke-linecap:butt;stroke-linejoin:miter;stroke-miterlimit:10.43299961;stroke-opacity:1;stroke-dasharray:none;stroke-dashoffset:0"
       inkscape:connector-curvature="0"
       d="m 286.98896,219.59857 -0.003,-0.29152 -0.017,-0.28814 -0.0237,-0.27797 -0.0339,-0.27458 -0.0407,-0.2678 -0.0508,-0.26102 -0.061,-0.25424 -0.0678,-0.24746 -0.0746,-0.23729 -0.0814,-0.2339 -0.0915,-0.22373 -0.0949,-0.21695 -0.10509,-0.20678 -0.10847,-0.2 -0.11865,-0.18983 -0.11864,-0.18305 -0.12882,-0.17289 -0.1322,-0.16271 -0.1356,-0.15254 -0.14237,-0.14238 -0.14576,-0.13559 -0.14916,-0.12204 -0.15254,-0.11186 -0.15932,-0.1017 -0.15933,-0.0915 -0.16271,-0.078 -0.1661,-0.0678 -0.16611,-0.0576 -0.16949,-0.0441 -0.17288,-0.0305 -0.17288,-0.0203 -0.17289,-0.003 v 1.02713 c 1.23391,0 2.41358,1.65764 2.41358,4.13562 0,2.50171 -1.09492,4.49834 -2.41358,4.49834 h 0 c -1.31526,0 -2.41697,-1.99663 -2.41697,-4.49834 0,-2.46104 1.16612,-4.13562 2.41697,-4.13562 v -1.02713 c -1.89154,0 -3.57969,2.26103 -3.57969,5.33224 0,3.1424 1.72544,5.35598 3.57969,5.35598 1.89493,0 3.57969,-2.26104 3.57969,-5.33903 z"
       id="path10326" />
    <path
       style="font-style:normal;font-variant:normal;font-weight:normal;font-stretch:normal;letter-spacing:normal;word-spacing:normal;text-anchor:start;fill:#000000;stroke:#000000;stroke-width:0;stroke-linecap:butt;stroke-linejoin:miter;stroke-miterlimit:10.43299961;stroke-opacity:1;stroke-dasharray:none;stroke-dashoffset:0"
       inkscape:connector-curvature="0"
       d="m 301.97552,214.93752 0,-0.0271 0,-0.0271 0,-0.0271 0,-0.0271 -0.003,-0.0576 -0.003,-0.0271 -0.003,-0.0305 -0.003,-0.0271 -0.003,-0.0305 -0.003,-0.0271 -0.007,-0.0305 -0.007,-0.0271 -0.0102,-0.0271 -0.0102,-0.0271 -0.0102,-0.0271 -0.0136,-0.0237 -0.0136,-0.0237 -0.017,-0.0237 -0.0169,-0.0237 -0.0203,-0.0203 -0.0203,-0.0203 -0.0102,-0.0102 -0.0136,-0.0102 -0.0136,-0.007 -0.0102,-0.0102 -0.017,-0.007 -0.0136,-0.007 -0.0136,-0.0102 -0.017,-0.003 -0.0136,-0.007 -0.017,-0.007 -0.017,-0.007 -0.0203,-0.003 -0.017,-0.003 -0.0203,-0.003 -0.0203,-0.003 -0.0203,-0.003 -0.0203,-0.003 -0.0237,0 -0.0203,0 -0.0237,0 c -0.32204,0 -0.42373,0.2 -0.50848,0.4 -0.64068,1.4373 -1.52205,1.62374 -1.8373,1.65764 -0.27119,0.017 -0.62713,0.0508 -0.62713,0.52543 0,0.42034 0.3017,0.50509 0.55594,0.50509 0.32543,0 1.01357,-0.1017 1.75934,-0.74238 v 7.12209 h -1.54239 c -0.2678,0 -0.67119,0 -0.67119,0.52543 0,0.50847 0.42373,0.50847 0.67119,0.50847 h 4.2441 c 0.25424,0 0.67119,0 0.67119,-0.50847 0,-0.52543 -0.4,-0.52543 -0.67119,-0.52543 h -1.5356 z"
       id="path10328" />
    <path
       style="font-style:normal;font-variant:normal;font-weight:normal;font-stretch:normal;letter-spacing:normal;word-spacing:normal;text-anchor:start;fill:#000000;stroke:#000000;stroke-width:0;stroke-linecap:butt;stroke-linejoin:miter;stroke-miterlimit:10.43299961;stroke-opacity:1;stroke-dasharray:none;stroke-dashoffset:0"
       inkscape:connector-curvature="0"
       d="m 315.5485,223.77149 -0.017,0.0136 -0.0136,0.0102 -0.0136,0.0136 -0.0136,0.0136 -0.0237,0.0237 -0.0237,0.0203 -0.0136,0.0136 -0.0102,0.0102 -0.0102,0.0136 -0.0102,0.0102 -0.0102,0.0136 -0.0102,0.0102 -0.007,0.0136 -0.0102,0.0136 -0.007,0.0102 -0.007,0.0136 -0.0102,0.0136 -0.007,0.0136 -0.003,0.017 -0.007,0.0136 -0.007,0.0136 -0.003,0.017 -0.003,0.017 -0.003,0.0169 -0.003,0.017 -0.003,0.0203 -0.003,0.017 0,0.0203 0,0.0203 0,0.0203 c 0,0.52542 0.42374,0.52542 0.69153,0.52542 h 5.72208 c 0.55933,0 0.67797,-0.15254 0.67797,-0.69492 v -0.43729 c 0,-0.31864 0,-0.68814 -0.57288,-0.68814 -0.59323,0 -0.59323,0.31526 -0.59323,0.78645 h -4.02037 c 0.99662,-0.85764 2.61697,-2.12205 3.3424,-2.80002 1.06442,-0.94238 1.84408,-2.02375 1.84408,-3.37969 0,-2.02374 -1.70509,-3.28816 -3.76613,-3.28816 -1.98984,0 -3.32545,1.37967 -3.32545,2.81697 0,0.62373 0.47119,0.81018 0.75594,0.81018 0.35594,0 0.74916,-0.28475 0.74916,-0.75594 0,-0.20339 -0.0847,-0.42373 -0.24068,-0.54238 0.25424,-0.77967 1.04747,-1.3017 1.97629,-1.3017 1.38306,0 2.68476,0.77627 2.68476,2.26103 0,1.18645 -0.82712,2.16612 -1.94238,3.09155 z"
       id="path10330" />
    <path
       style="font-style:normal;font-variant:normal;font-weight:normal;font-stretch:normal;letter-spacing:normal;word-spacing:normal;text-anchor:start;fill:#000000;stroke:#000000;stroke-width:0;stroke-linecap:butt;stroke-linejoin:miter;stroke-miterlimit:10.43299961;stroke-opacity:1;stroke-dasharray:none;stroke-dashoffset:0"
       inkscape:connector-curvature="0"
       d="m 338.34529,219.11043 0.0881,-0.0576 0.0847,-0.061 0.0814,-0.061 0.078,-0.0644 0.078,-0.0644 0.0746,-0.0678 0.0678,-0.0712 0.0712,-0.0712 0.0644,-0.0712 0.061,-0.0712 0.061,-0.078 0.0542,-0.0746 0.0542,-0.078 0.0542,-0.078 0.0475,-0.078 0.0441,-0.0814 0.0441,-0.0814 0.0407,-0.0813 0.0373,-0.0848 0.0339,-0.0813 0.0305,-0.0848 0.0305,-0.0847 0.0271,-0.0847 0.0237,-0.0848 0.0203,-0.0847 0.017,-0.0881 0.017,-0.0847 0.0102,-0.0881 0.0102,-0.0847 0.007,-0.0847 0.003,-0.0881 0.003,-0.0847 c 0,-1.25086 -1.23391,-2.37629 -3.17291,-2.37629 -2.03052,0 -3.21019,0.81017 -3.21019,1.9729 0,0.55932 0.41695,0.79661 0.75594,0.79661 0.35593,0 0.74915,-0.29153 0.74915,-0.76272 0,-0.2339 -0.10508,-0.40339 -0.15593,-0.45763 0.52543,-0.52203 1.72205,-0.52203 1.87798,-0.52203 1.14916,0 1.98985,0.60678 1.98985,1.36611 0,0.50848 -0.25424,1.1017 -0.70848,1.4712 -0.54238,0.44068 -0.96611,0.47119 -1.56951,0.50847 -0.96271,0.0644 -1.21695,0.0644 -1.21695,0.55594 0,0.52543 0.40678,0.52543 0.67797,0.52543 h 0.77288 c 1.67459,0 2.53562,1.12882 2.53562,2.10849 0,1.03391 -0.94577,2.09832 -2.48138,2.09832 -0.67797,0 -1.97628,-0.19322 -2.41697,-0.97967 0.0848,-0.0847 0.20001,-0.18644 0.20001,-0.52543 0,-0.40678 -0.32204,-0.74576 -0.73899,-0.74576 -0.39323,0 -0.76272,0.25423 -0.76272,0.79322 0,1.5051 1.64069,2.48477 3.71867,2.48477 2.2068,0 3.64749,-1.55256 3.64749,-3.12545 0,-1.19662 -0.79323,-2.19324 -1.91188,-2.70172 z"
       id="path10332" />
    <path
       style="font-style:normal;font-variant:normal;font-weight:normal;font-stretch:normal;letter-spacing:normal;word-spacing:normal;text-anchor:start;fill:#000000;stroke:#000000;stroke-width:0;stroke-linecap:butt;stroke-linejoin:miter;stroke-miterlimit:10.43299961;stroke-opacity:1;stroke-dasharray:none;stroke-dashoffset:0"
       inkscape:connector-curvature="0"
       d="m 350.52504,220.62909 -0.0136,0.0203 -0.0136,0.0203 -0.0136,0.017 -0.0102,0.0169 -0.0102,0.017 -0.0102,0.0169 -0.0102,0.0136 -0.007,0.017 -0.0102,0.0136 -0.007,0.0136 -0.007,0.0136 -0.007,0.017 -0.003,0.0136 -0.007,0.0136 -0.003,0.0136 -0.003,0.0136 -0.003,0.017 -0.003,0.0136 -0.003,0.017 0,0.0169 -0.003,0.017 0,0.0169 -0.003,0.0203 0,0.0203 0,0.0203 0,0.0237 0,0.0237 -0.003,0.0237 0,0.0271 0,0.0271 0,0.0271 0,0.0305 c 0,0.55933 0.15593,0.67459 0.67797,0.67459 h 4.26105 v 1.82035 h -1.05085 c -0.27119,0 -0.67798,0 -0.67798,0.52543 0,0.50847 0.42374,0.50847 0.67798,0.50847 h 3.0407 c 0.25424,0 0.67119,0 0.67119,-0.50847 0,-0.52543 -0.4,-0.52543 -0.67119,-0.52543 h -1.04747 v -1.82035 h 1.31866 c 0.25423,0 0.67119,0 0.67119,-0.50848 0,-0.51865 -0.40001,-0.51865 -0.67119,-0.51865 h -1.31866 v -5.9492 c 0,-0.55594 -0.11864,-0.68814 -0.69492,-0.68814 h -0.47119 l 0.22373,0.74238 v 5.89496 h -3.75257 l 3.75257,-5.89496 -0.22373,-0.74238 c -0.40339,0 -0.48814,0.017 -0.70848,0.34916 z"
       id="path10334" />
    <path
       style="font-style:normal;font-variant:normal;font-weight:normal;font-stretch:normal;letter-spacing:normal;word-spacing:normal;text-anchor:start;fill:#000000;stroke:#000000;stroke-width:0;stroke-linecap:butt;stroke-linejoin:miter;stroke-miterlimit:10.43299961;stroke-opacity:1;stroke-dasharray:none;stroke-dashoffset:0"
       inkscape:connector-curvature="0"
       d="m 273.08211,299.68112 -0.11186,0 -0.11526,0.003 -0.11864,0.007 -0.12204,0.0136 -0.12203,0.0136 -0.12882,0.017 -0.12542,0.0237 -0.12882,0.0237 -0.1322,0.0305 -0.13221,0.0373 -0.12881,0.0407 -0.1322,0.0441 -0.13221,0.0475 -0.1322,0.0576 -0.13221,0.061 -0.12881,0.0644 v -3.21019 h 4.05088 c 0.25424,0 0.66441,0 0.66441,-0.5017 0,-0.52543 -0.39322,-0.52543 -0.66441,-0.52543 h -4.54241 c -0.55594,0 -0.67458,0.14916 -0.67458,0.69492 v 4.49156 c 0,0.3017 0,0.68814 0.54237,0.68814 0.3017,0 0.3695,-0.0847 0.5017,-0.24746 0.45763,-0.54237 1.14916,-0.84746 2.12883,-0.84746 1.38984,0 2.14578,1.23391 2.14578,2.32883 0,1.35255 -1.19662,2.36951 -2.61697,2.36951 -0.47458,0 -1.55594,-0.13898 -2.02713,-1.06441 0.0847,-0.0847 0.22034,-0.20679 0.22034,-0.54238 0,-0.49153 -0.38983,-0.76272 -0.74577,-0.76272 -0.25424,0 -0.75594,0.15593 -0.75594,0.81018 0,1.4034 1.41696,2.58646 3.3085,2.58646 2.10849,0 3.78986,-1.52205 3.78986,-3.39664 0,-1.7051 -1.31187,-3.35596 -3.30172,-3.35596 z"
       id="path10336" />
    <path
       style="font-style:normal;font-variant:normal;font-weight:normal;font-stretch:normal;letter-spacing:normal;word-spacing:normal;text-anchor:start;fill:#000000;stroke:#000000;stroke-width:0;stroke-linecap:butt;stroke-linejoin:miter;stroke-miterlimit:10.43299961;stroke-opacity:1;stroke-dasharray:none;stroke-dashoffset:0"
       inkscape:connector-curvature="0"
       d="m 387.46092,219.04264 0,-0.22034 0.0339,-0.21357 0.0339,-0.21017 0.0678,-0.2 0.0678,-0.19661 0.0339,-0.18983 0.0678,-0.18644 0.10169,-0.17628 0.0678,-0.16949 0.0678,-0.1661 0.10169,-0.15594 0.1017,-0.15254 0.1017,-0.14576 0.10169,-0.13899 0.1017,-0.12881 0.13559,-0.12543 0.1017,-0.11525 0.13559,-0.11187 0.1017,-0.10169 0.13559,-0.0983 0.13559,-0.0881 0.1356,-0.0814 0.10169,-0.0746 0.1356,-0.0644 0.13559,-0.061 0.1695,-0.0508 0.13559,-0.0441 0.13559,-0.0339 0.1356,-0.0305 0.13559,-0.0169 0.1356,-0.0136 0.13559,-0.003 c 0.57628,0 0.84747,0.18305 0.94916,0.26779 -0.10169,0.0848 -0.16949,0.18645 -0.16949,0.49492 0,0.4034 0.30509,0.74238 0.71187,0.74238 0.44068,0 0.77967,-0.28814 0.77967,-0.79661 0,-0.82713 -0.61018,-1.73561 -2.23731,-1.73561 -2.2712,0 -4.54241,2.04408 -4.54241,5.45428 0,4.00003 1.89832,5.23394 3.55935,5.23394 v -1.02713 c -1.08475,0 -1.76272,-0.8339 -2.10171,-1.86103 0,-0.0983 -0.0339,-0.2 -0.0678,-0.30509 0,0 0,-0.0644 0,-0.0644 0,0 0,-0.15254 0,-0.15254 0,-0.11864 -0.0339,-0.41017 -0.0339,-0.52543 0,-1.05085 0.98305,-1.89154 2.2712,-1.89154 1.38984,0 2.2712,1.13222 2.2712,2.38307 0,1.45086 -1.11865,2.41697 -2.339,2.41697 h 0 v 1.02713 c 1.86442,0 3.49155,-1.42035 3.49155,-3.4441 0,-1.92883 -1.45763,-3.43053 -3.32206,-3.43053 -0.88136,0 -1.76272,0.29153 -2.50849,0.97967 z"
       id="path10338" />
    <path
       style="font-style:normal;font-variant:normal;font-weight:normal;font-stretch:normal;letter-spacing:normal;word-spacing:normal;text-anchor:start;fill:#000000;stroke:#000000;stroke-width:0;stroke-linecap:butt;stroke-linejoin:miter;stroke-miterlimit:10.43299961;stroke-opacity:1;stroke-dasharray:none;stroke-dashoffset:0"
       inkscape:connector-curvature="0"
       d="m 409.46109,215.45956 -0.27119,0.29492 -0.27119,0.29491 -0.23729,0.3017 -0.20339,0.29831 -0.23729,0.30508 -0.20339,0.3017 -0.16949,0.30509 -0.20339,0.30509 -0.1695,0.30508 -0.13559,0.30509 -0.16949,0.30509 -0.1356,0.30169 -0.13559,0.3017 -0.1017,0.29831 -0.10169,0.29492 -0.1017,0.29152 -0.10169,0.28814 -0.0678,0.28475 -0.1017,0.28136 -0.0678,0.27458 -0.0339,0.2678 -0.0678,0.2644 -0.0339,0.25763 -0.0339,0.25085 -0.0339,0.24407 -0.0339,0.2339 -0.0339,0.22712 -0.0339,0.22034 0,0.20678 0,0.20001 0,0.18983 0,0.17966 c 0,0.24068 0,0.79662 0.57627,0.79662 0.30509,0 0.57628,-0.18645 0.57628,-0.67458 0.0678,-4.79665 2.67799,-7.73566 3.69494,-8.73228 0.33899,-0.30169 0.37289,-0.33898 0.37289,-0.57288 0,-0.52543 -0.40679,-0.52543 -0.67797,-0.52543 h -5.55937 c -0.10169,-0.2678 -0.40678,-0.2678 -0.54238,-0.2678 -0.57627,0 -0.57627,0.3695 -0.57627,0.68814 v 0.70848 c 0,0.32204 0,0.69492 0.57627,0.69492 0.57628,0 0.57628,-0.31864 0.57628,-0.79661 z"
       id="path10340" />
    <path
       style="font-style:normal;font-variant:normal;font-weight:normal;font-stretch:normal;letter-spacing:normal;word-spacing:normal;text-anchor:start;fill:#000000;stroke:#000000;stroke-width:0;stroke-linecap:butt;stroke-linejoin:miter;stroke-miterlimit:10.43299961;stroke-opacity:1;stroke-dasharray:none;stroke-dashoffset:0"
       inkscape:connector-curvature="0"
       d="m 426.57987,219.19518 0.13559,-0.0441 0.1017,-0.0441 0.13559,-0.0508 0.1017,-0.0475 0.10169,-0.0542 0.1356,-0.0542 0.10169,-0.0542 0.1017,-0.0576 0.0678,-0.061 0.1017,-0.061 0.1017,-0.0644 0.0678,-0.0644 0.1017,-0.0644 0.0678,-0.0678 0.0678,-0.0712 0.0678,-0.0712 0.0678,-0.0712 0.0678,-0.0746 0.0678,-0.078 0.0339,-0.0746 0.0678,-0.078 0.0339,-0.0814 0.0339,-0.0814 0.0339,-0.0814 0.0339,-0.0814 0.0339,-0.0848 0.0339,-0.0847 0,-0.0881 0.0339,-0.0881 0,-0.0881 0,-0.0881 0,-0.0881 c 0,-1.38984 -1.42374,-2.70171 -3.42376,-2.70171 v 1.02713 c 1.28815,0 2.27121,0.81017 2.27121,1.68814 0,0.96611 -1.05086,1.7051 -2.27121,1.7051 h 0 c -1.25424,0 -2.3051,-0.75594 -2.3051,-1.7051 0,-0.87797 0.94916,-1.68814 2.3051,-1.68814 v -1.02713 c -2.03391,0 -3.45765,1.33221 -3.45765,2.70171 0,0.96272 0.77967,1.80341 2.10171,2.24409 -1.25425,0.35593 -2.339,1.34916 -2.339,2.61697 0,1.6373 1.55933,3.12545 3.69494,3.12545 v -1.02713 c -1.42374,0 -2.54239,-0.94916 -2.54239,-2.11527 0,-1.03052 0.98306,-2.09154 2.54239,-2.09154 1.55934,0 2.5085,1.06102 2.5085,2.09154 0,1.16611 -1.11866,2.11527 -2.5085,2.11527 h 0 v 1.02713 c 2.10171,0 3.66105,-1.48815 3.66105,-3.12545 0,-1.26781 -1.08476,-2.26104 -2.339,-2.61697 z"
       id="path10342" />
    <path
       style="font-style:normal;font-variant:normal;font-weight:normal;font-stretch:normal;letter-spacing:normal;word-spacing:normal;text-anchor:start;fill:#000000;stroke:#000000;stroke-width:0;stroke-linecap:butt;stroke-linejoin:miter;stroke-miterlimit:10.43299961;stroke-opacity:1;stroke-dasharray:none;stroke-dashoffset:0"
       inkscape:connector-curvature="0"
       d="m 445.25798,220.14434 0,0.19322 -0.0339,0.19322 -0.0339,0.18984 -0.0339,0.18644 -0.0339,0.18305 -0.0678,0.17627 -0.0678,0.17627 -0.0339,0.17289 -0.0678,0.1661 -0.0678,0.16271 -0.10169,0.15594 -0.0678,0.15254 -0.10169,0.14915 -0.1017,0.14238 -0.0678,0.13559 -0.10169,0.13221 -0.1356,0.12203 -0.10169,0.11865 -0.1017,0.11186 -0.13559,0.10509 -0.1017,0.0983 -0.13559,0.0881 -0.1356,0.0847 -0.13559,0.0746 -0.1017,0.0678 -0.16949,0.0576 -0.13559,0.0508 -0.1356,0.0407 -0.13559,0.0339 -0.1356,0.0237 -0.16949,0.0136 -0.13559,0.007 c -0.1695,0 -0.77967,-0.0237 -1.11866,-0.29153 0.0678,-0.0847 0.1356,-0.18644 0.1356,-0.47119 0,-0.40339 -0.30509,-0.74238 -0.74577,-0.74238 -0.40678,0 -0.74577,0.28475 -0.74577,0.79323 0,0.54238 0.30509,1.739 2.4746,1.739 2.2373,0 4.30511,-2.10849 4.30511,-5.45767 0,-4.06783 -1.89832,-5.23055 -3.49155,-5.23055 v 1.02713 c 0.74577,0 1.18645,0.38983 1.45764,0.72543 0.44068,0.55932 0.64407,1.42034 0.64407,1.51865 0,0.0373 0,0.0712 0,0.15593 0,0.0847 0.0678,0.35255 0.0678,0.50848 0,0.92543 -0.91526,1.88815 -2.3051,1.88815 h 0 c -1.38984,0 -2.27121,-1.13221 -2.27121,-2.38307 0,-1.4678 1.18645,-2.41357 2.4068,-2.41357 v -1.02713 c -1.86442,0 -3.59325,1.39662 -3.59325,3.4407 0,1.92883 1.49154,3.42715 3.35596,3.42715 0.88136,0 1.76273,-0.28475 2.5085,-0.97289 z"
       id="path10344" />
    <path
       style="font-style:normal;font-variant:normal;font-weight:normal;font-stretch:normal;letter-spacing:normal;word-spacing:normal;text-anchor:start;fill:#000000;stroke:#000000;stroke-width:0;stroke-linecap:butt;stroke-linejoin:miter;stroke-miterlimit:10.43299961;stroke-opacity:1;stroke-dasharray:none;stroke-dashoffset:0"
       inkscape:connector-curvature="0"
       d="m 461.49539,214.93752 0,-0.0271 0,-0.0271 0,-0.0271 0,-0.0271 0,-0.0576 0,-0.0271 0,-0.0305 0,-0.0271 0,-0.0305 0,-0.0271 -0.0339,-0.0305 0,-0.0271 0,-0.0271 0,-0.0271 -0.0339,-0.0271 0,-0.0237 0,-0.0237 -0.0339,-0.0237 0,-0.0237 -0.0339,-0.0203 -0.0339,-0.0203 0,-0.0102 0,-0.0102 -0.0339,-0.007 0,-0.0102 -0.0339,-0.007 0,-0.007 0,-0.0102 -0.0339,-0.003 0,-0.007 -0.0339,-0.007 0,-0.007 -0.0339,-0.003 0,-0.003 -0.0339,-0.003 -0.0339,-0.003 0,-0.003 -0.0339,-0.003 0,0 -0.0339,0 -0.0339,0 c -0.30509,0 -0.40678,0.2 -0.50848,0.4 -0.64407,1.4373 -1.52543,1.62374 -1.83052,1.65764 -0.27119,0.017 -0.61017,0.0508 -0.61017,0.52543 0,0.42034 0.30508,0.50509 0.54237,0.50509 0.30509,0 1.01696,-0.1017 1.76273,-0.74238 v 7.12209 h -1.55934 c -0.27118,0 -0.64407,0 -0.64407,0.52543 0,0.50847 0.40678,0.50847 0.64407,0.50847 h 4.27122 c 0.23729,0 0.64408,0 0.64408,-0.50847 0,-0.52543 -0.40679,-0.52543 -0.64408,-0.52543 h -1.55933 z"
       id="path10346" />
    <path
       style="font-style:normal;font-variant:normal;font-weight:normal;font-stretch:normal;letter-spacing:normal;word-spacing:normal;text-anchor:start;fill:#000000;stroke:#000000;stroke-width:0;stroke-linecap:butt;stroke-linejoin:miter;stroke-miterlimit:10.43299961;stroke-opacity:1;stroke-dasharray:none;stroke-dashoffset:0"
       inkscape:connector-curvature="0"
       d="m 473.1226,219.59857 0,-0.29152 -0.0339,-0.28814 0,-0.27797 -0.0339,-0.27458 -0.0678,-0.2678 -0.0339,-0.26102 -0.0678,-0.25424 -0.0678,-0.24746 -0.0678,-0.23729 -0.10169,-0.2339 -0.0678,-0.22373 -0.1017,-0.21695 -0.10169,-0.20678 -0.1017,-0.2 -0.13559,-0.18983 -0.1017,-0.18305 -0.13559,-0.17289 -0.1356,-0.16271 -0.13559,-0.15254 -0.13559,-0.14238 -0.1695,-0.13559 -0.13559,-0.12204 -0.1356,-0.11186 -0.16949,-0.1017 -0.16949,-0.0915 -0.16949,-0.078 -0.1356,-0.0678 -0.16949,-0.0576 -0.16949,-0.0441 -0.1695,-0.0305 -0.20339,-0.0203 -0.16949,-0.003 v 1.02713 c 1.25425,0 2.4068,1.65764 2.4068,4.13562 0,2.50171 -1.08476,4.49834 -2.4068,4.49834 h 0 c -1.32204,0 -2.4068,-1.99663 -2.4068,-4.49834 0,-2.46104 1.15255,-4.13562 2.4068,-4.13562 v -1.02713 c -1.86442,0 -3.55935,2.26103 -3.55935,5.33224 0,3.1424 1.72883,5.35598 3.55935,5.35598 1.89832,0 3.59325,-2.26104 3.59325,-5.33903 z"
       id="path10348" />
    <path
       inkscape:connector-curvature="0"
       id="path10379"
       d="m 265.74803,308.26769 0,-14.17323 14.17323,0 0,14.17323 z"
       style="font-style:normal;font-variant:normal;font-weight:normal;font-stretch:normal;letter-spacing:normal;word-spacing:normal;text-anchor:start;fill:none;stroke:#000000;stroke-width:1px;stroke-linecap:butt;stroke-linejoin:miter;stroke-miterlimit:10.43299961;stroke-opacity:1;stroke-dasharray:none;stroke-dashoffset:0" />
    <path
       inkscape:connector-curvature="0"
       id="path10379-2"
       d="m 279.92126,308.26769 0,-14.17323 14.17323,0 0,14.17323 z"
       style="font-style:normal;font-variant:normal;font-weight:normal;font-stretch:normal;letter-spacing:normal;word-spacing:normal;text-anchor:start;fill:none;stroke:#000000;stroke-width:1px;stroke-linecap:butt;stroke-linejoin:miter;stroke-miterlimit:10.43299961;stroke-opacity:1;stroke-dasharray:none;stroke-dashoffset:0" />
    <path
       inkscape:connector-curvature="0"
       id="path10379-8"
       d="m 294.09449,308.26769 0,-14.17322 14.17322,0 0,14.17322 z"
       style="font-style:normal;font-variant:normal;font-weight:normal;font-stretch:normal;letter-spacing:normal;word-spacing:normal;text-anchor:start;fill:none;stroke:#000000;stroke-width:1px;stroke-linecap:butt;stroke-linejoin:miter;stroke-miterlimit:10.43299961;stroke-opacity:1;stroke-dasharray:none;stroke-dashoffset:0" />
    <path
       inkscape:connector-curvature="0"
       id="path10379-2-2"
       d="m 308.26771,308.26769 0,-14.17323 14.17323,0 0,14.17323 z"
       style="font-style:normal;font-variant:normal;font-weight:normal;font-stretch:normal;letter-spacing:normal;word-spacing:normal;text-anchor:start;fill:none;stroke:#000000;stroke-width:1px;stroke-linecap:butt;stroke-linejoin:miter;stroke-miterlimit:10.43299961;stroke-opacity:1;stroke-dasharray:none;stroke-dashoffset:0" />
    <path
       style="font-style:normal;font-variant:normal;font-weight:normal;font-stretch:normal;letter-spacing:normal;word-spacing:normal;text-anchor:start;fill:#000000;stroke:#000000;stroke-width:0;stroke-linecap:butt;stroke-linejoin:miter;stroke-miterlimit:10.43299961;stroke-opacity:1;stroke-dasharray:none;stroke-dashoffset:0"
       inkscape:connector-curvature="0"
       d="m 287.25534,299.68112 -0.11186,0 -0.11526,0.003 -0.11864,0.007 -0.12204,0.0136 -0.12203,0.0136 -0.12882,0.017 -0.12542,0.0237 -0.12882,0.0237 -0.1322,0.0305 -0.13221,0.0373 -0.12881,0.0407 -0.1322,0.0441 -0.13221,0.0475 -0.1322,0.0576 -0.13221,0.061 -0.12881,0.0644 v -3.21019 h 4.05088 c 0.25424,0 0.66441,0 0.66441,-0.5017 0,-0.52543 -0.39322,-0.52543 -0.66441,-0.52543 h -4.54241 c -0.55594,0 -0.67458,0.14916 -0.67458,0.69492 v 4.49156 c 0,0.3017 0,0.68814 0.54237,0.68814 0.3017,0 0.3695,-0.0847 0.5017,-0.24746 0.45763,-0.54237 1.14916,-0.84746 2.12883,-0.84746 1.38984,0 2.14578,1.23391 2.14578,2.32883 0,1.35255 -1.19662,2.36951 -2.61697,2.36951 -0.47458,0 -1.55594,-0.13898 -2.02713,-1.06441 0.0847,-0.0847 0.22034,-0.20679 0.22034,-0.54238 0,-0.49153 -0.38983,-0.76272 -0.74577,-0.76272 -0.25424,0 -0.75594,0.15593 -0.75594,0.81018 0,1.4034 1.41696,2.58646 3.3085,2.58646 2.10849,0 3.78986,-1.52205 3.78986,-3.39664 0,-1.7051 -1.31187,-3.35596 -3.30172,-3.35596 z"
       id="path10336-0" />
    <path
       style="font-style:normal;font-variant:normal;font-weight:normal;font-stretch:normal;letter-spacing:normal;word-spacing:normal;text-anchor:start;fill:#000000;stroke:#000000;stroke-width:0;stroke-linecap:butt;stroke-linejoin:miter;stroke-miterlimit:10.43299961;stroke-opacity:1;stroke-dasharray:none;stroke-dashoffset:0"
       inkscape:connector-curvature="0"
       d="m 301.42857,299.68112 -0.11186,0 -0.11526,0.003 -0.11864,0.007 -0.12204,0.0136 -0.12203,0.0136 -0.12882,0.017 -0.12542,0.0237 -0.12882,0.0237 -0.1322,0.0305 -0.13221,0.0373 -0.12881,0.0407 -0.1322,0.0441 -0.13221,0.0475 -0.1322,0.0576 -0.13221,0.061 -0.12881,0.0644 v -3.21019 h 4.05088 c 0.25424,0 0.66441,0 0.66441,-0.5017 0,-0.52543 -0.39322,-0.52543 -0.66441,-0.52543 h -4.54241 c -0.55594,0 -0.67458,0.14916 -0.67458,0.69492 v 4.49156 c 0,0.3017 0,0.68814 0.54237,0.68814 0.3017,0 0.3695,-0.0847 0.5017,-0.24746 0.45763,-0.54237 1.14916,-0.84746 2.12883,-0.84746 1.38984,0 2.14578,1.23391 2.14578,2.32883 0,1.35255 -1.19662,2.36951 -2.61697,2.36951 -0.47458,0 -1.55594,-0.13898 -2.02713,-1.06441 0.0847,-0.0847 0.22034,-0.20679 0.22034,-0.54238 0,-0.49153 -0.38983,-0.76272 -0.74577,-0.76272 -0.25424,0 -0.75594,0.15593 -0.75594,0.81018 0,1.4034 1.41696,2.58646 3.3085,2.58646 2.10849,0 3.78986,-1.52205 3.78986,-3.39664 0,-1.7051 -1.31187,-3.35596 -3.30172,-3.35596 z"
       id="path10336-8" />
    <path
       style="font-style:normal;font-variant:normal;font-weight:normal;font-stretch:normal;letter-spacing:normal;word-spacing:normal;text-anchor:start;fill:#000000;stroke:#000000;stroke-width:0;stroke-linecap:butt;stroke-linejoin:miter;stroke-miterlimit:10.43299961;stroke-opacity:1;stroke-dasharray:none;stroke-dashoffset:0"
       inkscape:connector-curvature="0"
       d="m 315.6018,299.68112 -0.11186,0 -0.11526,0.003 -0.11864,0.007 -0.12204,0.0136 -0.12203,0.0136 -0.12882,0.017 -0.12542,0.0237 -0.12882,0.0237 -0.1322,0.0305 -0.13221,0.0373 -0.12881,0.0407 -0.1322,0.0441 -0.13221,0.0475 -0.1322,0.0576 -0.13221,0.061 -0.12881,0.0644 v -3.21019 h 4.05088 c 0.25424,0 0.66441,0 0.66441,-0.5017 0,-0.52543 -0.39322,-0.52543 -0.66441,-0.52543 h -4.54241 c -0.55594,0 -0.67458,0.14916 -0.67458,0.69492 v 4.49156 c 0,0.3017 0,0.68814 0.54237,0.68814 0.3017,0 0.3695,-0.0847 0.5017,-0.24746 0.45763,-0.54237 1.14916,-0.84746 2.12883,-0.84746 1.38984,0 2.14578,1.23391 2.14578,2.32883 0,1.35255 -1.19662,2.36951 -2.61697,2.36951 -0.47458,0 -1.55594,-0.13898 -2.02713,-1.06441 0.0847,-0.0847 0.22034,-0.20679 0.22034,-0.54238 0,-0.49153 -0.38983,-0.76272 -0.74577,-0.76272 -0.25424,0 -0.75594,0.15593 -0.75594,0.81018 0,1.4034 1.41696,2.58646 3.3085,2.58646 2.10849,0 3.78986,-1.52205 3.78986,-3.39664 0,-1.7051 -1.31187,-3.35596 -3.30172,-3.35596 z"
       id="path10336-3" />
  </g>
</svg>
