<?xml version="1.0" encoding="UTF-8" standalone="no"?>
<!-- Created with Inkscape (http://www.inkscape.org/) -->

<svg
   xmlns:dc="http://purl.org/dc/elements/1.1/"
   xmlns:cc="http://creativecommons.org/ns#"
   xmlns:rdf="http://www.w3.org/1999/02/22-rdf-syntax-ns#"
   xmlns:svg="http://www.w3.org/2000/svg"
   xmlns="http://www.w3.org/2000/svg"
   xmlns:sodipodi="http://sodipodi.sourceforge.net/DTD/sodipodi-0.dtd"
   xmlns:inkscape="http://www.inkscape.org/namespaces/inkscape"
   width="210mm"
   height="297mm"
   id="svg10230"
   version="1.1"
   inkscape:version="0.48.4 r9939"
   sodipodi:docname="quicksearch-1.svg">
  <sodipodi:namedview
     id="base"
     pagecolor="#ffffff"
     bordercolor="#666666"
     borderopacity="1.0"
     inkscape:pageopacity="0.0"
     inkscape:pageshadow="2"
     inkscape:zoom="2.8"
     inkscape:cx="286.60692"
     inkscape:cy="714.0724"
     inkscape:document-units="px"
     inkscape:current-layer="layer1"
     showgrid="true"
     inkscape:window-width="1278"
     inkscape:window-height="779"
     inkscape:window-x="0"
     inkscape:window-y="19"
     inkscape:window-maximized="1"
     inkscape:snap-object-midpoints="true"
     inkscape:object-paths="true"
     inkscape:snap-intersection-paths="true"
     inkscape:object-nodes="true"
     inkscape:snap-smooth-nodes="true"
     inkscape:snap-midpoints="true">
    <inkscape:grid
       type="xygrid"
       id="grid10238"
       empspacing="5"
       visible="true"
       enabled="true"
       snapvisiblegridlinesonly="true"
       units="mm"
       spacingx="1mm"
       spacingy="1mm" />
  </sodipodi:namedview>
  <defs
     id="defs10232">
    <marker
       inkscape:stockid="Arrow2Mend"
       orient="auto"
       refY="0.0"
       refX="0.0"
       id="Arrow2Mend"
       style="overflow:visible;">
      <path
         id="path3912"
         style="fill-rule:evenodd;stroke-width:0.62500000;stroke-linejoin:round;"
         d="M 8.7185878,4.0337352 L -2.2072895,0.016013256 L 8.7185884,-4.0017078 C 6.9730900,-1.6296469 6.9831476,1.6157441 8.7185878,4.0337352 z "
         transform="scale(0.6) rotate(180) translate(0,0)" />
    </marker>
    <marker
       inkscape:stockid="Arrow2Mend"
       orient="auto"
       refY="0"
       refX="0"
       id="Arrow2Mend-6"
       style="overflow:visible">
      <path
         inkscape:connector-curvature="0"
         id="path3912-5"
         style="fill-rule:evenodd;stroke-width:0.625;stroke-linejoin:round"
         d="M 8.7185878,4.0337352 -2.2072895,0.01601326 8.7185884,-4.0017078 c -1.7454984,2.3720609 -1.7354408,5.6174519 -6e-7,8.035443 z"
         transform="scale(-0.6,-0.6)" />
    </marker>
    <marker
       inkscape:stockid="Arrow2Mend"
       orient="auto"
       refY="0"
       refX="0"
       id="Arrow2Mend-3"
       style="overflow:visible">
      <path
         inkscape:connector-curvature="0"
         id="path3912-0"
         style="fill-rule:evenodd;stroke-width:0.625;stroke-linejoin:round"
         d="M 8.7185878,4.0337352 -2.2072895,0.01601326 8.7185884,-4.0017078 c -1.7454984,2.3720609 -1.7354408,5.6174519 -6e-7,8.035443 z"
         transform="scale(-0.6,-0.6)" />
    </marker>
    <marker
       inkscape:stockid="Arrow2Mend"
       orient="auto"
       refY="0"
       refX="0"
       id="Arrow2Mend-4"
       style="overflow:visible">
      <path
         inkscape:connector-curvature="0"
         id="path3912-9"
         style="fill-rule:evenodd;stroke-width:0.625;stroke-linejoin:round"
         d="M 8.7185878,4.0337352 -2.2072895,0.01601326 8.7185884,-4.0017078 c -1.7454984,2.3720609 -1.7354408,5.6174519 -6e-7,8.035443 z"
         transform="scale(-0.6,-0.6)" />
    </marker>
  </defs>
  <metadata
     id="metadata10235">
    <rdf:RDF>
      <cc:Work
         rdf:about="">
        <dc:format>image/svg+xml</dc:format>
        <dc:type
           rdf:resource="http://purl.org/dc/dcmitype/StillImage" />
        <dc:title />
      </cc:Work>
    </rdf:RDF>
  </metadata>
  <g
     inkscape:label="Ebene 1"
     inkscape:groupmode="layer"
     id="layer1">
    <path
       id="path10276"
       d="m 273.69407,282.67881 -0.006,-0.0287 -0.006,-0.0255 -0.01,-0.0287 -0.006,-0.0255 -0.006,-0.0223 -0.006,-0.0255 -0.01,-0.0223 -0.006,-0.0223 -0.0159,-0.0415 -0.0191,-0.0383 -0.0159,-0.0383 -0.0191,-0.0319 -0.0191,-0.0319 -0.0191,-0.0287 -0.0191,-0.0255 -0.0223,-0.0255 -0.0223,-0.0191 -0.0223,-0.0223 -0.0223,-0.0159 -0.0255,-0.016 -0.0255,-0.0127 -0.0287,-0.0128 -0.0287,-0.0127 -0.0287,-0.01 -0.0287,-0.006 -0.0319,-0.006 -0.0351,-0.006 -0.0319,-0.003 -0.0351,-0.003 -0.0383,-0.003 -0.0383,-0.003 -0.0383,0 -0.0414,-0.003 -0.0415,0 -0.0446,0 -0.0446,0 c -0.45921,0 -0.71433,0 -0.85783,0.60272 l -1.92296,8.32004 c -0.22004,0 -0.58996,0 -0.68244,0.0351 -0.17539,0.0957 -0.27106,0.25511 -0.27106,0.45921 0,0.47834 0.41457,0.47834 0.68244,0.47834 h 1.62 c 0.2902,0 0.66968,0 0.66968,-0.47834 0,-0.49429 -0.3157,-0.49429 -0.88972,-0.49429 l 0.36673,-1.6487 0.23918,-0.96945 1.04598,-5.01945 h 0.0191 l 1.03004,5.01945 h -2.09515 l -0.23918,0.96945 h 2.57351 l 0.36354,1.6487 c -0.57083,0 -0.88972,0 -0.88972,0.49429 0,0.47834 0.38267,0.47834 0.66649,0.47834 h 1.62319 c 0.27106,0 0.68563,0 0.68563,-0.47834 0,-0.2041 -0.0797,-0.36354 -0.27106,-0.44327 -0.0989,-0.051 -0.44646,-0.051 -0.68563,-0.051 z"
       inkscape:connector-curvature="0"
       style="font-style:normal;font-variant:normal;font-weight:normal;font-stretch:normal;letter-spacing:normal;word-spacing:normal;text-anchor:start;fill:#000000;stroke:#000000;stroke-width:0;stroke-linecap:butt;stroke-linejoin:miter;stroke-miterlimit:10.43299961;stroke-opacity:1;stroke-dasharray:none;stroke-dashoffset:0" />
    <path
       id="path10278"
       d="m 288.60714,286.77824 0.0957,-0.0319 0.0925,-0.0383 0.0893,-0.0383 0.0893,-0.0446 0.0861,-0.0446 0.0829,-0.0446 0.0829,-0.051 0.0765,-0.051 0.0797,-0.0542 0.0733,-0.0574 0.0702,-0.0606 0.0701,-0.0606 0.067,-0.0638 0.0638,-0.0638 0.0606,-0.067 0.0574,-0.0702 0.0574,-0.0702 0.051,-0.0733 0.0478,-0.0734 0.0446,-0.0765 0.0446,-0.0797 0.0383,-0.0765 0.0351,-0.0829 0.0319,-0.0829 0.0287,-0.0829 0.0255,-0.0861 0.0223,-0.0861 0.0159,-0.0861 0.0159,-0.0893 0.01,-0.0893 0.006,-0.0925 0,-0.0925 c 0,-1.16079 -0.96945,-2.46189 -2.73295,-2.46189 l -0.0606,0.96626 c 1.34893,0 1.69972,0.98858 1.69972,1.51157 0,0.65374 -0.51023,1.69973 -2.04732,1.69973 h -1.64232 v 0.96944 h 2.19401 c 1.34894,0 1.82729,1.16079 1.82729,1.87512 0,0.77811 -0.61548,1.71248 -2.00268,1.71248 h 0 -2.01862 v -3.5876 -0.96944 -3.2113 h 1.98992 l 0.0606,-0.96626 h -3.5876 c -0.22642,0 -0.6378,0 -0.6378,0.47515 0,0.49111 0.39863,0.49111 0.65056,0.49111 h 0.43051 v 7.76834 h -0.43051 c -0.25193,0 -0.65056,0 -0.65056,0.49429 0,0.47835 0.41138,0.47835 0.6378,0.47835 h 3.9065 c 1.79858,0 2.74889,-1.41591 2.74889,-2.65004 0,-1.1002 -0.76216,-2.13342 -2.04732,-2.43319 z"
       inkscape:connector-curvature="0"
       style="font-style:normal;font-variant:normal;font-weight:normal;font-stretch:normal;letter-spacing:normal;word-spacing:normal;text-anchor:start;fill:#000000;stroke:#000000;stroke-width:0;stroke-linecap:butt;stroke-linejoin:miter;stroke-miterlimit:10.43299961;stroke-opacity:1;stroke-dasharray:none;stroke-dashoffset:0" />
    <path
       id="path10280"
       d="m 304.70652,282.62779 0,-0.0255 0,-0.0255 0,-0.0255 0,-0.0255 -0.003,-0.0542 0,-0.0255 -0.003,-0.0287 -0.003,-0.0255 -0.003,-0.0287 -0.006,-0.0255 -0.006,-0.0287 -0.006,-0.0255 -0.006,-0.0255 -0.01,-0.0255 -0.01,-0.0255 -0.0128,-0.0223 -0.0128,-0.0223 -0.0159,-0.0223 -0.016,-0.0223 -0.0191,-0.0191 -0.0191,-0.0191 -0.01,-0.01 -0.0128,-0.01 -0.0127,-0.006 -0.01,-0.01 -0.0128,-0.006 -0.0159,-0.006 -0.0128,-0.01 -0.0127,-0.003 -0.0159,-0.006 -0.0159,-0.006 -0.016,-0.006 -0.0159,-0.003 -0.0191,-0.003 -0.0159,-0.003 -0.0191,-0.003 -0.0191,-0.003 -0.0191,-0.003 -0.0223,0 -0.0191,0 -0.0223,0 c -0.2902,0 -0.36992,0.15945 -0.44965,0.26787 -0.0287,0.0638 -0.0287,0.0957 -0.23279,0.49429 -0.52937,-0.44964 -1.25646,-0.76216 -2.06965,-0.76216 -2.04732,0 -3.82677,2.12704 -3.82677,5.01626 0,2.91153 1.77945,5.03858 3.84272,5.03858 1.84323,0 3.20811,-1.41591 3.20811,-2.84457 0,-0.52299 -0.37949,-0.52299 -0.5517,-0.52299 -0.14669,0 -0.51023,0 -0.54531,0.4624 -0.10843,1.55303 -1.39358,1.9389 -2.04732,1.9389 -1.44461,0 -2.80949,-1.68378 -2.80949,-4.07232 0,-2.36622 1.38083,-4.05 2.79354,-4.05 0.95351,0 1.8241,0.73027 2.05051,2.01862 0.0478,0.26787 0.0797,0.52299 0.55807,0.52299 0.5517,0 0.5517,-0.33484 0.5517,-0.64736 z"
       inkscape:connector-curvature="0"
       style="font-style:normal;font-variant:normal;font-weight:normal;font-stretch:normal;letter-spacing:normal;word-spacing:normal;text-anchor:start;fill:#000000;stroke:#000000;stroke-width:0;stroke-linecap:butt;stroke-linejoin:miter;stroke-miterlimit:10.43299961;stroke-opacity:1;stroke-dasharray:none;stroke-dashoffset:0" />
    <path
       id="path10282"
       d="m 312.30248,282.15423 -0.0223,0 -0.0255,0 -0.0255,0 -0.0255,0.003 -0.0542,0 -0.0287,0.003 -0.0255,0.003 -0.0287,0.003 -0.0255,0.003 -0.0287,0.006 -0.0255,0.003 -0.0255,0.01 -0.0255,0.006 -0.0255,0.01 -0.0255,0.0128 -0.0255,0.01 -0.0223,0.0159 -0.0223,0.0159 -0.0223,0.016 -0.0191,0.0191 -0.0191,0.0223 -0.01,0.01 -0.006,0.0128 -0.01,0.0128 -0.006,0.0128 -0.01,0.0127 -0.006,0.0128 -0.006,0.0159 -0.006,0.0127 -0.006,0.016 -0.003,0.0159 -0.006,0.0159 -0.003,0.0191 -0.006,0.0191 -0.003,0.0159 -0.003,0.0223 0,0.0191 -0.003,0.0191 0,0.0223 -0.003,0.0223 0,0.0223 c 0,0.47197 0.40818,0.47197 0.64736,0.47197 h 0.35079 v 7.76834 h -0.35079 c -0.25193,0 -0.64736,0 -0.64736,0.49429 0,0.47835 0.40818,0.47835 0.64736,0.47835 h 3.27508 c 2.0824,0 3.47598,-2.22272 3.47598,-4.78346 0,-2.54162 -1.36488,-4.92378 -3.47598,-4.92378 l -0.29977,0.96626 c 1.7954,0 2.68193,2.11429 2.68193,3.95752 0,1.85917 -0.91842,3.81082 -2.68193,3.81082 h -1.53071 V 283.12 h 1.53071 l 0.29977,-0.96626 z"
       inkscape:connector-curvature="0"
       style="font-style:normal;font-variant:normal;font-weight:normal;font-stretch:normal;letter-spacing:normal;word-spacing:normal;text-anchor:start;fill:#000000;stroke:#000000;stroke-width:0;stroke-linecap:butt;stroke-linejoin:miter;stroke-miterlimit:10.43299961;stroke-opacity:1;stroke-dasharray:none;stroke-dashoffset:0" />
    <path
       id="path10318"
       d="m 255.66408,300.54061 -0.0746,-0.0136 -0.0712,-0.0136 -0.13898,-0.0237 -0.13898,-0.0203 -0.13899,-0.0237 -0.0712,-0.0136 -0.0678,-0.0102 -0.0712,-0.0136 -0.0746,-0.0136 -0.0746,-0.0136 -0.0746,-0.0136 -0.0746,-0.0136 -0.0814,-0.0169 c -0.48475,-0.0678 -1.63391,-0.2678 -1.63391,-0.93221 0,-0.4373 0.53898,-0.95594 2.14238,-0.95594 1.4068,0 1.63731,0.50169 1.69154,0.94238 0.0169,0.28474 0.0475,0.57627 0.57289,0.57627 0.59322,0 0.59322,-0.35593 0.59322,-0.69492 v -1.16272 c 0,-0.27119 0,-0.69492 -0.50847,-0.69492 -0.4034,0 -0.47119,0.23729 -0.50509,0.35593 -0.74577,-0.35593 -1.48815,-0.35593 -1.81019,-0.35593 -2.81697,0 -3.20341,1.38306 -3.20341,1.98985 0,1.55933 1.7695,1.84408 3.32545,2.07798 0.82712,0.13898 2.17629,0.35593 2.17629,1.25085 0,0.62374 -0.62374,1.18645 -2.16273,1.18645 -0.79323,0 -1.739,-0.18644 -2.15934,-1.50509 -0.0847,-0.30848 -0.15254,-0.49153 -0.59323,-0.49153 -0.58644,0 -0.58644,0.35254 -0.58644,0.69153 v 1.6373 c 0,0.27119 0,0.69492 0.5017,0.69492 0.15254,0 0.42373,-0.0169 0.62373,-0.64068 0.82713,0.60678 1.72205,0.64068 2.20002,0.64068 2.66782,0 3.21019,-1.4034 3.21019,-2.21358 0,-1.75594 -2.18307,-2.10849 -2.72205,-2.19323 z"
       inkscape:connector-curvature="0"
       style="font-style:normal;font-variant:normal;font-weight:normal;font-stretch:normal;letter-spacing:normal;word-spacing:normal;text-anchor:start;fill:#000000;stroke:#000000;stroke-width:0;stroke-linecap:butt;stroke-linejoin:miter;stroke-miterlimit:10.43299961;stroke-opacity:1;stroke-dasharray:none;stroke-dashoffset:0" />
    <path
       id="path10336"
       d="m 273.08211,299.68112 -0.11186,0 -0.11526,0.003 -0.11864,0.007 -0.12204,0.0136 -0.12203,0.0136 -0.12882,0.017 -0.12542,0.0237 -0.12882,0.0237 -0.1322,0.0305 -0.13221,0.0373 -0.12881,0.0407 -0.1322,0.0441 -0.13221,0.0475 -0.1322,0.0576 -0.13221,0.061 -0.12881,0.0644 v -3.21019 h 4.05088 c 0.25424,0 0.66441,0 0.66441,-0.5017 0,-0.52543 -0.39322,-0.52543 -0.66441,-0.52543 h -4.54241 c -0.55594,0 -0.67458,0.14916 -0.67458,0.69492 v 4.49156 c 0,0.3017 0,0.68814 0.54237,0.68814 0.3017,0 0.3695,-0.0847 0.5017,-0.24746 0.45763,-0.54237 1.14916,-0.84746 2.12883,-0.84746 1.38984,0 2.14578,1.23391 2.14578,2.32883 0,1.35255 -1.19662,2.36951 -2.61697,2.36951 -0.47458,0 -1.55594,-0.13898 -2.02713,-1.06441 0.0847,-0.0847 0.22034,-0.20679 0.22034,-0.54238 0,-0.49153 -0.38983,-0.76272 -0.74577,-0.76272 -0.25424,0 -0.75594,0.15593 -0.75594,0.81018 0,1.4034 1.41696,2.58646 3.3085,2.58646 2.10849,0 3.78986,-1.52205 3.78986,-3.39664 0,-1.7051 -1.31187,-3.35596 -3.30172,-3.35596 z"
       inkscape:connector-curvature="0"
       style="font-style:normal;font-variant:normal;font-weight:normal;font-stretch:normal;letter-spacing:normal;word-spacing:normal;text-anchor:start;fill:#000000;stroke:#000000;stroke-width:0;stroke-linecap:butt;stroke-linejoin:miter;stroke-miterlimit:10.43299961;stroke-opacity:1;stroke-dasharray:none;stroke-dashoffset:0" />
    <path
       style="font-style:normal;font-variant:normal;font-weight:normal;font-stretch:normal;letter-spacing:normal;word-spacing:normal;text-anchor:start;fill:none;stroke:#000000;stroke-width:1px;stroke-linecap:butt;stroke-linejoin:miter;stroke-miterlimit:10.43299961;stroke-opacity:1;stroke-dasharray:none;stroke-dashoffset:0"
       d="m 265.74803,308.26769 0,-14.17323 14.17323,0 0,14.17323 z"
       id="path10379"
       inkscape:connector-curvature="0" />
    <path
       style="font-style:normal;font-variant:normal;font-weight:normal;font-stretch:normal;letter-spacing:normal;word-spacing:normal;text-anchor:start;fill:none;stroke:#000000;stroke-width:1px;stroke-linecap:butt;stroke-linejoin:miter;stroke-miterlimit:10.43299961;stroke-opacity:1;stroke-dasharray:none;stroke-dashoffset:0"
       d="m 279.92126,308.26769 0,-14.17323 14.17323,0 0,14.17323 z"
       id="path10379-2"
       inkscape:connector-curvature="0" />
    <path
       style="font-style:normal;font-variant:normal;font-weight:normal;font-stretch:normal;letter-spacing:normal;word-spacing:normal;text-anchor:start;fill:none;stroke:#000000;stroke-width:1px;stroke-linecap:butt;stroke-linejoin:miter;stroke-miterlimit:10.43299961;stroke-opacity:1;stroke-dasharray:none;stroke-dashoffset:0"
       d="m 294.09449,308.26769 0,-14.17322 14.17322,0 0,14.17322 z"
       id="path10379-8"
       inkscape:connector-curvature="0" />
    <path
       style="font-style:normal;font-variant:normal;font-weight:normal;font-stretch:normal;letter-spacing:normal;word-spacing:normal;text-anchor:start;fill:none;stroke:#000000;stroke-width:1px;stroke-linecap:butt;stroke-linejoin:miter;stroke-miterlimit:10.43299961;stroke-opacity:1;stroke-dasharray:none;stroke-dashoffset:0"
       d="m 308.26771,308.26769 0,-14.17323 14.17323,0 0,14.17323 z"
       id="path10379-2-2"
       inkscape:connector-curvature="0" />
    <path
       id="path10336-0"
       d="m 287.25534,299.68112 -0.11186,0 -0.11526,0.003 -0.11864,0.007 -0.12204,0.0136 -0.12203,0.0136 -0.12882,0.017 -0.12542,0.0237 -0.12882,0.0237 -0.1322,0.0305 -0.13221,0.0373 -0.12881,0.0407 -0.1322,0.0441 -0.13221,0.0475 -0.1322,0.0576 -0.13221,0.061 -0.12881,0.0644 v -3.21019 h 4.05088 c 0.25424,0 0.66441,0 0.66441,-0.5017 0,-0.52543 -0.39322,-0.52543 -0.66441,-0.52543 h -4.54241 c -0.55594,0 -0.67458,0.14916 -0.67458,0.69492 v 4.49156 c 0,0.3017 0,0.68814 0.54237,0.68814 0.3017,0 0.3695,-0.0847 0.5017,-0.24746 0.45763,-0.54237 1.14916,-0.84746 2.12883,-0.84746 1.38984,0 2.14578,1.23391 2.14578,2.32883 0,1.35255 -1.19662,2.36951 -2.61697,2.36951 -0.47458,0 -1.55594,-0.13898 -2.02713,-1.06441 0.0847,-0.0847 0.22034,-0.20679 0.22034,-0.54238 0,-0.49153 -0.38983,-0.76272 -0.74577,-0.76272 -0.25424,0 -0.75594,0.15593 -0.75594,0.81018 0,1.4034 1.41696,2.58646 3.3085,2.58646 2.10849,0 3.78986,-1.52205 3.78986,-3.39664 0,-1.7051 -1.31187,-3.35596 -3.30172,-3.35596 z"
       inkscape:connector-curvature="0"
       style="font-style:normal;font-variant:normal;font-weight:normal;font-stretch:normal;letter-spacing:normal;word-spacing:normal;text-anchor:start;fill:#000000;stroke:#000000;stroke-width:0;stroke-linecap:butt;stroke-linejoin:miter;stroke-miterlimit:10.43299961;stroke-opacity:1;stroke-dasharray:none;stroke-dashoffset:0" />
    <path
       id="path10336-8"
       d="m 301.42857,299.68112 -0.11186,0 -0.11526,0.003 -0.11864,0.007 -0.12204,0.0136 -0.12203,0.0136 -0.12882,0.017 -0.12542,0.0237 -0.12882,0.0237 -0.1322,0.0305 -0.13221,0.0373 -0.12881,0.0407 -0.1322,0.0441 -0.13221,0.0475 -0.1322,0.0576 -0.13221,0.061 -0.12881,0.0644 v -3.21019 h 4.05088 c 0.25424,0 0.66441,0 0.66441,-0.5017 0,-0.52543 -0.39322,-0.52543 -0.66441,-0.52543 h -4.54241 c -0.55594,0 -0.67458,0.14916 -0.67458,0.69492 v 4.49156 c 0,0.3017 0,0.68814 0.54237,0.68814 0.3017,0 0.3695,-0.0847 0.5017,-0.24746 0.45763,-0.54237 1.14916,-0.84746 2.12883,-0.84746 1.38984,0 2.14578,1.23391 2.14578,2.32883 0,1.35255 -1.19662,2.36951 -2.61697,2.36951 -0.47458,0 -1.55594,-0.13898 -2.02713,-1.06441 0.0847,-0.0847 0.22034,-0.20679 0.22034,-0.54238 0,-0.49153 -0.38983,-0.76272 -0.74577,-0.76272 -0.25424,0 -0.75594,0.15593 -0.75594,0.81018 0,1.4034 1.41696,2.58646 3.3085,2.58646 2.10849,0 3.78986,-1.52205 3.78986,-3.39664 0,-1.7051 -1.31187,-3.35596 -3.30172,-3.35596 z"
       inkscape:connector-curvature="0"
       style="font-style:normal;font-variant:normal;font-weight:normal;font-stretch:normal;letter-spacing:normal;word-spacing:normal;text-anchor:start;fill:#000000;stroke:#000000;stroke-width:0;stroke-linecap:butt;stroke-linejoin:miter;stroke-miterlimit:10.43299961;stroke-opacity:1;stroke-dasharray:none;stroke-dashoffset:0" />
    <path
       id="path10336-3"
       d="m 315.6018,299.68112 -0.11186,0 -0.11526,0.003 -0.11864,0.007 -0.12204,0.0136 -0.12203,0.0136 -0.12882,0.017 -0.12542,0.0237 -0.12882,0.0237 -0.1322,0.0305 -0.13221,0.0373 -0.12881,0.0407 -0.1322,0.0441 -0.13221,0.0475 -0.1322,0.0576 -0.13221,0.061 -0.12881,0.0644 v -3.21019 h 4.05088 c 0.25424,0 0.66441,0 0.66441,-0.5017 0,-0.52543 -0.39322,-0.52543 -0.66441,-0.52543 h -4.54241 c -0.55594,0 -0.67458,0.14916 -0.67458,0.69492 v 4.49156 c 0,0.3017 0,0.68814 0.54237,0.68814 0.3017,0 0.3695,-0.0847 0.5017,-0.24746 0.45763,-0.54237 1.14916,-0.84746 2.12883,-0.84746 1.38984,0 2.14578,1.23391 2.14578,2.32883 0,1.35255 -1.19662,2.36951 -2.61697,2.36951 -0.47458,0 -1.55594,-0.13898 -2.02713,-1.06441 0.0847,-0.0847 0.22034,-0.20679 0.22034,-0.54238 0,-0.49153 -0.38983,-0.76272 -0.74577,-0.76272 -0.25424,0 -0.75594,0.15593 -0.75594,0.81018 0,1.4034 1.41696,2.58646 3.3085,2.58646 2.10849,0 3.78986,-1.52205 3.78986,-3.39664 0,-1.7051 -1.31187,-3.35596 -3.30172,-3.35596 z"
       inkscape:connector-curvature="0"
       style="font-style:normal;font-variant:normal;font-weight:normal;font-stretch:normal;letter-spacing:normal;word-spacing:normal;text-anchor:start;fill:#000000;stroke:#000000;stroke-width:0;stroke-linecap:butt;stroke-linejoin:miter;stroke-miterlimit:10.43299961;stroke-opacity:1;stroke-dasharray:none;stroke-dashoffset:0" />
    <g
       id="g3055"
       transform="matrix(0.3,0,0,0.3,116.28638,230.76529)">
      <g
         word-spacing="normal"
         letter-spacing="normal"
         font-size-adjust="none"
         font-stretch="normal"
         font-weight="normal"
         font-variant="normal"
         font-style="normal"
         stroke-miterlimit="10.433"
         xml:space="preserve"
         transform="matrix(1.0629921,0,0,-1.0629921,-186.02362,789.27165)"
         id="content"
         style="font-style:normal;font-variant:normal;font-weight:normal;font-stretch:normal;letter-spacing:normal;word-spacing:normal;text-anchor:start;fill:none;stroke:#000000;stroke-width:3.33333325;stroke-linecap:butt;stroke-linejoin:miter;stroke-miterlimit:10.43299961;stroke-opacity:1;stroke-dasharray:none;stroke-dashoffset:0"><path
           id="path3058"
           d="m 460.96,426.18 -0.01,0.07 -0.01,0.07 0,0.06 -0.01,0.07 -0.01,0.06 -0.02,0.05 -0.01,0.06 -0.01,0.05 -0.02,0.06 -0.02,0.05 -0.01,0.05 -0.02,0.04 -0.02,0.05 -0.02,0.04 -0.02,0.04 -0.03,0.04 -0.02,0.04 -0.02,0.04 -0.06,0.07 -0.05,0.06 -0.06,0.06 -0.06,0.05 -0.06,0.04 -0.07,0.05 -0.07,0.03 -0.07,0.04 -0.07,0.02 -0.08,0.03 -0.08,0.02 -0.08,0.02 -0.08,0.01 -0.08,0.01 -0.08,0.01 -0.08,0.01 -0.09,0.01 -0.17,0.01 -0.16,0 -0.17,0 h -1.6 c -0.75,0 -2.04,0 -2.04,-1.49 0,-1.54 1.04,-1.54 2.84,-1.54 v -15.39 c -1.8,0 -2.84,0 -2.84,-1.55 0,-1.5 1.34,-1.5 2.04,-1.5 h 4.39 c 0.74,0 2.04,0 2.04,1.5 0,1.55 -1.05,1.55 -2.83,1.55 v 8.9 c 0,4.44 2.03,6.78 4.08,6.78 1.14,0 1.84,-0.84 1.84,-4.09 v -11.59 c -0.95,0 -2.19,0 -2.19,-1.55 0,-1.5 1.35,-1.5 2.03,-1.5 h 3.75 c 0.74,0 2.03,0 2.03,1.5 0,1.55 -1.04,1.55 -2.82,1.55 v 8.9 c 0,4.44 2.03,6.78 4.07,6.78 1.14,0 1.85,-0.84 1.85,-4.09 v -11.59 c -0.96,0 -2.19,0 -2.19,-1.55 0,-1.5 1.34,-1.5 2.03,-1.5 h 3.75 c 0.74,0 2.03,0 2.03,1.5 0,1.55 -1.04,1.55 -2.83,1.55 v 12.04 c 0,1 0,6.67 -4.43,6.67 -1.5,0 -3.55,-0.64 -4.94,-2.57 -0.75,1.68 -2.14,2.57 -3.78,2.57 -1.6,0 -3.1,-0.68 -4.28,-1.78 z"
           inkscape:connector-curvature="0"
           style="fill:#000000;stroke-width:0" /><path
           id="path3060"
           d="m 496.47,419.7 h 7.08 c 0.59,0 2.34,0 2.34,1.75 0,1.73 -1.75,1.73 -2.34,1.73 h -7.08 v 7.13 c 0,0.61 0,2.34 -1.75,2.34 -1.73,0 -1.73,-1.73 -1.73,-2.34 v -7.13 h -7.08 c -0.59,0 -2.34,0 -2.34,-1.73 0,-1.75 1.75,-1.75 2.34,-1.75 h 7.08 v -7.13 c 0,-0.59 0,-2.34 1.73,-2.34 1.75,0 1.75,1.75 1.75,2.34 z"
           inkscape:connector-curvature="0"
           style="fill:#000000;stroke-width:0" /><path
           id="path3062"
           d="m 523.33,435.15 0,0.08 0,0.08 0,0.08 0,0.08 -0.01,0.17 0,0.08 -0.01,0.09 -0.01,0.08 -0.01,0.09 -0.02,0.08 -0.02,0.09 -0.02,0.08 -0.02,0.08 -0.03,0.08 -0.04,0.08 -0.03,0.07 -0.04,0.07 -0.05,0.07 -0.05,0.07 -0.06,0.06 -0.07,0.06 -0.03,0.03 -0.03,0.03 -0.04,0.02 -0.04,0.03 -0.04,0.02 -0.04,0.02 -0.05,0.03 -0.04,0.01 -0.05,0.02 -0.05,0.02 -0.05,0.02 -0.05,0.01 -0.06,0.01 -0.05,0.01 -0.06,0.01 -0.06,0.01 -0.07,0.01 -0.06,0 -0.07,0 -0.07,0 c -0.95,0 -1.25,-0.59 -1.5,-1.18 -1.89,-4.24 -4.48,-4.79 -5.42,-4.89 -0.8,-0.05 -1.84,-0.15 -1.84,-1.55 0,-1.24 0.89,-1.49 1.64,-1.49 0.95,0 2.98,0.3 5.19,2.19 v -21.01 h -4.55 c -0.8,0 -1.99,0 -1.99,-1.55 0,-1.5 1.25,-1.5 1.99,-1.5 h 12.51 c 0.75,0 1.99,0 1.99,1.5 0,1.55 -1.19,1.55 -1.99,1.55 h -4.53 z"
           inkscape:connector-curvature="0"
           style="fill:#000000;stroke-width:0" /><path
           id="path3064"
           d="m 555.96,423.48 0.06,0 0.06,0 0.07,0 0.07,0 0.08,0.01 0.09,0 0.08,0.01 0.09,0.01 0.09,0.01 0.09,0.01 0.1,0.02 0.09,0.02 0.09,0.03 0.1,0.03 0.09,0.03 0.09,0.04 0.1,0.04 0.08,0.05 0.09,0.06 0.08,0.06 0.08,0.06 0.07,0.08 0.04,0.04 0.03,0.04 0.04,0.04 0.03,0.05 0.03,0.05 0.03,0.04 0.02,0.06 0.03,0.05 0.02,0.05 0.03,0.06 0.02,0.06 0.01,0.06 0.02,0.07 0.02,0.06 0.01,0.07 0.01,0.07 0.01,0.08 0,0.07 0.01,0.08 0,0.08 c 0,1.75 -1.85,1.75 -2.55,1.75 h -17.23 c -0.71,0 -2.55,0 -2.55,-1.75 0,-1.75 1.64,-1.75 2.25,-1.75 z"
           inkscape:connector-curvature="0"
           style="fill:#000000;stroke-width:0" /><path
           id="path3066"
           d="m 555.66,415.92 0.07,0 0.07,0 0.09,0 0.08,0 0.09,0 0.1,0.01 0.09,0.01 0.1,0.01 0.11,0.01 0.1,0.01 0.11,0.02 0.1,0.02 0.11,0.02 0.11,0.03 0.1,0.04 0.11,0.03 0.1,0.05 0.1,0.05 0.09,0.05 0.1,0.06 0.08,0.07 0.09,0.07 0.04,0.04 0.04,0.04 0.03,0.04 0.04,0.05 0.03,0.05 0.03,0.04 0.03,0.06 0.03,0.05 0.03,0.05 0.02,0.06 0.03,0.06 0.02,0.06 0.01,0.06 0.02,0.07 0.01,0.07 0.02,0.07 0.01,0.07 0,0.07 0.01,0.08 0,0.08 c 0,1.75 -1.66,1.75 -2.25,1.75 h -17.83 c -0.61,0 -2.25,0 -2.25,-1.75 0,-1.73 1.84,-1.73 2.55,-1.73 z"
           inkscape:connector-curvature="0"
           style="fill:#000000;stroke-width:0" /><path
           id="path3068"
           d="m 573.94,425.57 -0.33,0 -0.34,-0.01 -0.35,-0.02 -0.36,-0.04 -0.36,-0.04 -0.37,-0.05 -0.38,-0.07 -0.38,-0.07 -0.39,-0.09 -0.38,-0.11 -0.39,-0.12 -0.39,-0.13 -0.39,-0.14 -0.39,-0.17 -0.38,-0.18 -0.39,-0.19 v 9.47 h 11.96 c 0.75,0 1.98,0 1.98,1.48 0,1.55 -1.19,1.55 -1.98,1.55 h -13.41 c -1.64,0 -1.99,-0.44 -1.99,-2.05 v -13.25 c 0,-0.89 0,-2.03 1.6,-2.03 0.89,0 1.09,0.25 1.48,0.73 1.35,1.6 3.39,2.5 6.29,2.5 4.09,0 6.32,-3.64 6.32,-6.87 0,-3.99 -3.53,-6.99 -7.72,-6.99 -1.4,0 -4.59,0.41 -5.98,3.14 0.25,0.25 0.66,0.61 0.66,1.6 0,1.45 -1.16,2.25 -2.21,2.25 -0.75,0 -2.23,-0.46 -2.23,-2.39 0,-4.14 4.19,-7.63 9.76,-7.63 6.22,0 11.16,4.49 11.16,10.02 0,5.03 -3.84,9.9 -9.72,9.9 z"
           inkscape:connector-curvature="0"
           style="fill:#000000;stroke-width:0" /></g>    </g>
    <path
       style="fill:none;stroke:#000000;stroke-width:1px;stroke-linecap:butt;stroke-linejoin:miter;stroke-opacity:1;marker-end:url(#Arrow2Mend)"
       d="m 255.11812,333.07084 c 17.71653,0 17.71653,-21.25984 17.71653,-21.25984"
       id="path3111"
       inkscape:connector-curvature="0"
       sodipodi:nodetypes="cc" />
    <path
       style="fill:none;stroke:#000000;stroke-width:1px;stroke-linecap:butt;stroke-linejoin:miter;stroke-opacity:1;marker-end:url(#Arrow2Mend)"
       d="m 269.29134,333.07084 c 17.71653,0 17.71653,-21.25984 17.71653,-21.25984"
       id="path3111-2"
       inkscape:connector-curvature="0"
       sodipodi:nodetypes="cc" />
    <path
       style="fill:none;stroke:#000000;stroke-width:1px;stroke-linecap:butt;stroke-linejoin:miter;stroke-opacity:1;marker-end:url(#Arrow2Mend)"
       d="m 283.46457,333.07084 c 17.71653,0 17.71653,-21.25984 17.71653,-21.25984"
       id="path3111-1"
       inkscape:connector-curvature="0"
       sodipodi:nodetypes="cc" />
    <path
       style="fill:none;stroke:#000000;stroke-width:1px;stroke-linecap:butt;stroke-linejoin:miter;stroke-opacity:1;marker-end:url(#Arrow2Mend)"
       d="m 297.6378,333.07084 c 17.71653,0 17.71653,-21.25984 17.71653,-21.25984"
       id="path3111-4"
       inkscape:connector-curvature="0"
       sodipodi:nodetypes="cc" />
    <path
       style="fill:none;stroke:#000000;stroke-width:1px;stroke-linecap:butt;stroke-linejoin:miter;stroke-opacity:1"
       d="m 297.6378,333.07084 -46.063,0"
       id="path4371"
       inkscape:connector-curvature="0" />
  </g>
</svg>
